<svg width="216" height="38" viewBox="0 0 216 38" fill="none" xmlns="http://www.w3.org/2000/svg">
<g clip-path="url(#clip0_2680_20593)">
<path d="M30.9436 1.07227H0V7.88217H11.4242V36.9089H19.5194V7.88217H30.9436V1.07227Z" fill="#EB0A1E"/>
<path d="M61.2426 24.7376C60.6107 26.3122 59.5834 27.6993 58.2589 28.7664C56.9343 29.8335 55.3567 30.5449 53.6769 30.8327C52.4264 31.0605 51.1446 31.0605 49.8941 30.8327C48.2129 30.5484 46.6337 29.8382 45.3086 28.7707C43.9835 27.7031 42.9571 26.3142 42.3284 24.7376C40.8906 21.0397 40.8906 16.9415 42.3284 13.2436C42.9571 11.667 43.9835 10.2781 45.3086 9.21053C46.6337 8.14299 48.2129 7.43286 49.8941 7.14853C51.1446 6.9207 52.4264 6.9207 53.6769 7.14853C55.3567 7.43631 56.9343 8.14771 58.2589 9.2148C59.5834 10.2819 60.6107 11.669 61.2426 13.2436C62.6804 16.9415 62.6804 21.0397 61.2426 24.7376ZM51.8801 9.30799e-06C48.1002 -0.00371108 44.4041 1.10792 41.2597 3.19423C38.1153 5.28055 35.6638 8.24776 34.2156 11.7203C32.7674 15.1929 32.3875 19.0147 33.124 22.7021C33.8605 26.3895 35.6803 29.7767 38.3531 32.435C41.0258 35.0934 44.4315 36.9033 48.1389 37.6358C51.8464 38.3683 55.689 37.9905 59.1804 36.5501C62.6719 35.1097 65.6552 32.6715 67.7529 29.5441C69.8505 26.4167 70.9682 22.7406 70.9645 18.9812C70.9595 13.9486 68.9472 9.12354 65.3692 5.56495C61.7913 2.00637 56.94 0.00498961 51.8801 9.30799e-06Z" fill="#EB0A1E"/>
<path d="M71.0977 1.07227H80.6493L89.5579 16.4792L98.4665 1.07227H108.018L93.6055 23.6465V36.9089H85.5103V23.6465L71.0977 1.07227Z" fill="#EB0A1E"/>
<path d="M127.31 31.002C127.945 31.0045 128.578 30.9479 129.202 30.8327C130.884 30.5501 132.464 29.8406 133.789 28.7728C135.114 27.7051 136.14 26.3152 136.767 24.7376C138.229 21.0442 138.229 16.937 136.767 13.2436C136.14 11.666 135.114 10.2761 133.789 9.20836C132.464 8.1406 130.884 7.43113 129.202 7.14854C128.577 7.04285 127.944 6.98622 127.31 6.97921C126.676 6.98714 126.044 7.04376 125.419 7.14854C123.738 7.43287 122.159 8.14301 120.833 9.21054C119.508 10.2781 118.482 11.667 117.853 13.2436C116.415 16.9415 116.415 21.0397 117.853 24.7376C118.482 26.3142 119.508 27.7032 120.833 28.7707C122.159 29.8382 123.738 30.5484 125.419 30.8327C126.043 30.947 126.676 31.0037 127.31 31.002ZM108.207 18.9812C108.211 15.2242 109.334 11.5525 111.436 8.43049C113.537 5.30843 116.522 2.87609 120.013 1.44091C123.504 0.00572759 127.344 -0.367859 131.049 0.367383C134.753 1.10263 138.155 2.91368 140.825 5.57162C143.495 8.22957 145.312 11.6151 146.048 15.3002C146.784 18.9853 146.404 22.8046 144.958 26.2753C143.511 29.746 141.063 32.7123 137.922 34.7992C134.781 36.8862 131.088 38 127.31 38C124.8 38 122.314 37.5079 119.995 36.5519C117.677 35.5959 115.57 34.1947 113.796 32.4284C112.021 30.6621 110.615 28.5653 109.656 26.258C108.697 23.9506 108.205 21.4779 108.207 18.9812Z" fill="#EB0A1E"/>
<path d="M201.663 22.7247L196.367 8.57815L191.052 22.7247H201.663ZM204.028 29.0079H188.688L185.738 36.89H176.734L191.317 1.14746H201.398L216 36.89H206.997L204.028 29.0079Z" fill="#EB0A1E"/>
<path d="M179.099 1.07227H148.137V7.88217H159.561V36.9089H167.675V7.88217H179.099V1.07227Z" fill="#EB0A1E"/>
</g>
<defs>
<clipPath id="clip0_2680_20593">
<rect width="216" height="38" fill="white"/>
</clipPath>
</defs>
</svg>
