<svg width="217" height="217" viewBox="0 0 217 217" fill="none" xmlns="http://www.w3.org/2000/svg">
<circle cx="108.5" cy="108.5" r="104.5" stroke="#EB0A1E" stroke-width="8"/>
<path d="M170.449 108.5C170.449 137.852 163.209 164.233 151.714 183.143C140.176 202.126 124.778 213 108.498 213C92.2173 213 76.82 202.126 65.2816 183.143C53.7867 164.233 46.5469 137.852 46.5469 108.5C46.5469 79.1481 53.7867 52.7675 65.2816 33.8566C76.82 14.8739 92.2173 4 108.498 4C124.778 4 140.176 14.8739 151.714 33.8566C163.209 52.7675 170.449 79.1481 170.449 108.5Z" stroke="#EB0A1E" stroke-width="8"/>
<path d="M0.851562 108.5H216.15" stroke="#EB0A1E" stroke-width="8"/>
<path d="M15 58L200 58" stroke="#EB0A1E" stroke-width="8"/>
<path d="M15 159L200 159" stroke="#EB0A1E" stroke-width="8"/>
<path d="M108.5 217L108.5 1.66893e-06" stroke="#EB0A1E" stroke-width="8"/>
</svg>
