<svg width="15" height="15" viewBox="0 0 15 15" fill="none" xmlns="http://www.w3.org/2000/svg">
<path fill-rule="evenodd" clip-rule="evenodd" d="M0 5C0 3.34315 1.34315 2 3 2H12C13.6569 2 15 3.34315 15 5V9C15 10.6569 13.6569 12 12 12H3C1.34315 12 0 10.6569 0 9V5ZM6.17539 6.31964C5.67608 5.89345 4.83864 5.89345 4.33933 6.31964C3.88689 6.70582 3.88689 7.29418 4.33933 7.68036C4.83864 8.10655 5.67608 8.10655 6.17539 7.68036L6.82461 8.44096C5.95134 9.18635 4.56338 9.18635 3.69011 8.44096C2.76996 7.65557 2.76996 6.34443 3.69011 5.55904C4.56338 4.81365 5.95134 4.81365 6.82461 5.55904L6.17539 6.31964ZM9.33933 6.31964C9.83864 5.89345 10.6761 5.89345 11.1754 6.31964L11.8246 5.55904C10.9513 4.81365 9.56338 4.81365 8.69011 5.55904C7.76996 6.34443 7.76996 7.65557 8.69011 8.44096C9.56338 9.18635 10.9513 9.18635 11.8246 8.44096L11.1754 7.68036C10.6761 8.10655 9.83864 8.10655 9.33933 7.68036C8.88689 7.29418 8.88689 6.70582 9.33933 6.31964Z" fill="white"/>
</svg>
