<svg width="938" height="445" viewBox="0 0 938 445" fill="none" xmlns="http://www.w3.org/2000/svg">
  <g opacity="0.1">
    <path
      d="M234.867 275.734C170.753 312.634 99.0401 241.089 136.005 177.088L1 410.5L238.153 547.153V273.848L234.867 275.734Z"
      stroke="#2F2F2F" stroke-linecap="square" stroke-linejoin="round" />
    <path
      d="M712.414 0.5H285.588C271.169 0.500366 257.004 4.28948 244.517 11.4864C232.03 18.6834 221.66 29.0347 214.451 41.4999L136.002 177.087C106.019 228.952 147.503 285.818 198.392 285.818C211.23 285.745 223.818 282.264 234.864 275.732L712.414 0.5Z"
      stroke="#2F2F2F" stroke-linecap="square" stroke-linejoin="round" />
    <path
      d="M785.605 197.711C748.64 197.711 712.414 225.017 712.414 270.035V820.5L925.991 451.501C933.201 439.035 936.996 424.895 936.996 410.501C936.996 396.107 933.201 381.966 925.991 369.501L847.583 233.914C841.515 222.915 832.592 213.749 821.752 207.379C810.912 201.009 798.554 197.67 785.975 197.711H785.605Z"
      stroke="#2F2F2F" stroke-linecap="square" stroke-linejoin="round" />
    <path
      d="M712.419 270.033C712.419 196.234 810.418 169.953 847.424 233.913L712.419 0.5L475.266 137.153L712.419 273.847V270.033Z"
      stroke="#2F2F2F" stroke-linecap="square" stroke-linejoin="round" />
    <path
      d="M1 410.496L214.577 779.495C221.787 791.961 232.156 802.312 244.644 809.509C257.131 816.706 271.296 820.495 285.715 820.495H442.53C516.46 820.495 542.788 722.67 478.715 685.729L1 410.496Z"
      stroke="#2F2F2F" stroke-linecap="square" stroke-linejoin="round" />
  </g>
  <path
    d="M712.414 0.5H285.588C271.169 0.500366 257.004 4.28948 244.517 11.4864C232.03 18.6834 221.66 29.0347 214.451 41.4999L136.002 177.087C106.019 228.952 147.503 285.818 198.392 285.818C211.23 285.745 223.818 282.264 234.864 275.732L712.414 0.5Z"
    stroke="url(#paint0_linear_2042_10879)" stroke-opacity="0.75" stroke-linecap="square" stroke-linejoin="round" />
  <defs>
    <linearGradient id="paint0_linear_2042_10879" x1="620" y1="12" x2="388.846" y2="201.364"
      gradientUnits="userSpaceOnUse">
      <stop offset="0.00520833" stop-color="#EE0A1D" stop-opacity="0" />
      <stop offset="0.505208" stop-color="#EE0A1D" />
      <stop offset="1" stop-color="#EE0A1D" stop-opacity="0" />
    </linearGradient>
  </defs>
</svg>