<svg width="17" height="16" viewBox="0 0 17 16" fill="none" xmlns="http://www.w3.org/2000/svg">
<g clip-path="url(#clip0_2579_21862)">
<path d="M16.0018 8.45938C16.0018 4.29464 12.6256 0.918457 8.46085 0.918457C4.29611 0.918457 0.919922 4.29464 0.919922 8.45938C0.919922 12.2232 3.67751 15.343 7.28258 15.9087V10.6392H5.36789V8.45938H7.28258V6.79802C7.28258 4.90808 8.40841 3.86413 10.1309 3.86413C10.9557 3.86413 11.8189 4.01141 11.8189 4.01141V5.86719H10.8681C9.93133 5.86719 9.63912 6.44852 9.63912 7.04546V8.45938H11.7305L11.3962 10.6392H9.63912V15.9087C13.2442 15.343 16.0018 12.2232 16.0018 8.45938Z" fill="white"/>
</g>
<defs>
<clipPath id="clip0_2579_21862">
<rect width="15.0819" height="15.0819" fill="white" transform="translate(0.919922 0.918457)"/>
</clipPath>
</defs>
</svg>
