<svg width="15" height="15" viewBox="2 2 15 15" fill="none" xmlns="http://www.w3.org/2000/svg">
<path fill-rule="evenodd" clip-rule="evenodd" d="M3.91016 4.90769C3.91016 4.12519 4.59046 3.49023 5.42886 3.49023C6.26672 3.49023 6.94703 4.12519 6.94756 4.90769C6.94756 5.69019 6.26725 6.33842 5.42886 6.33842C4.59046 6.33842 3.91016 5.69019 3.91016 4.90769ZM16.5533 15.2941V15.2936H16.5565V10.9645C16.5565 8.84673 16.068 7.21533 13.4153 7.21533C12.14 7.21533 11.2843 7.86848 10.9349 8.48769H10.898V7.41305H8.38281V15.2936H11.0018V11.3915C11.0018 10.364 11.2105 9.37053 12.5737 9.37053C13.917 9.37053 13.937 10.543 13.937 11.4574V15.2941H16.5533ZM4.11719 7.41357H6.73934V15.2942H4.11719V7.41357Z" fill="#F9F9F9"/>
</svg>
