<svg width="203" height="18" viewBox="0 0 203 18" fill="none" xmlns="http://www.w3.org/2000/svg">
<g clip-path="url(#clip0_1931_9203)">
<path d="M115.546 3.24484L111.919 15.5966H108.84L106.479 7.35069L104.084 15.5966H101.039L97.4121 3.24484H100.594L102.852 11.7645L105.213 3.24484H108.087L110.448 11.696L112.672 3.24484H115.546ZM115.683 9.40362C115.683 5.53727 118.455 3.03955 122.15 3.03955C125.879 3.03955 128.617 5.53728 128.617 9.33519C128.617 13.1331 125.879 15.7335 122.116 15.7335C118.489 15.7677 115.683 13.27 115.683 9.40362ZM125.606 9.40362C125.606 7.28226 124.203 5.811 122.15 5.811C120.131 5.811 118.728 7.28226 118.728 9.40362C118.728 11.525 120.131 12.9962 122.15 12.9962C124.203 12.9962 125.606 11.525 125.606 9.40362ZM140.763 3.07377L136.418 15.4255H133.236L128.924 3.07377H132.072L134.878 12.0382L137.649 3.07377H140.763ZM141.961 3.24484H149.659V5.811H144.869V8.20608H149.522V10.6354H144.869V13.0304H149.83V15.5966H141.961V3.24484ZM162.969 3.24484V15.5966H160.163L154.791 7.72706V15.5966H152.02V3.24484H154.826L160.163 11.1144V3.24484H162.969ZM166.254 9.43783C166.254 5.60571 168.991 3.03955 172.789 3.03955C174.431 3.03955 175.8 3.51857 176.792 4.13444L175.834 6.73481C174.978 6.18737 174.02 5.77678 172.891 5.77678C170.736 5.77678 169.299 7.24805 169.299 9.3694C169.299 11.4223 170.633 12.9962 172.891 12.9962C174.191 12.9962 175.355 12.4488 176.176 11.9356L176.997 14.4675C175.868 15.2202 174.534 15.7335 172.686 15.7335C168.854 15.7677 166.254 13.2015 166.254 9.43783ZM178.503 3.24484H181.411V15.5966H178.503V3.24484ZM192.018 5.77678H188.904V15.5966H185.996V5.77678H182.848V3.24484H192.018V5.77678ZM198.963 10.8407V15.5966H196.124V10.8407L192.052 3.24484H195.234L197.697 8.13765L200.161 3.24484H203.001L198.963 10.8407Z" fill="white"/>
<path d="M4.6533 4.68175H4.68751C5.02966 4.61332 5.3376 4.51067 5.67976 4.44224C6.09034 3.17627 6.63779 2.01294 7.39053 0.918052V0.883837H7.35631L6.97994 0.644329L6.63779 0.404821H6.60357V0.439036C5.74819 1.73922 5.0981 3.17627 4.6533 4.68175ZM7.39053 0.883837C7.28788 0.815406 7.21945 0.746975 7.1168 0.71276C7.21945 0.78119 7.28788 0.815406 7.39053 0.883837ZM6.63779 0.404821C6.50093 0.610113 6.39828 0.815406 6.26142 1.0207C6.39828 0.815406 6.53514 0.610113 6.63779 0.404821ZM2.77145 12.9277C2.42929 12.7908 2.12136 12.6539 1.7792 12.4829L1.74499 12.4486V12.4829C2.01871 14.3305 2.53194 16.1097 3.28468 17.8205V17.8547H3.31889L3.38733 17.8205L4.10585 17.4783H4.14006V17.4441C3.48997 15.9728 3.04517 14.5016 2.77145 12.9277ZM2.01871 12.5855C1.95028 12.5513 1.84763 12.5171 1.7792 12.4829C1.84763 12.5171 1.91606 12.5513 2.01871 12.5855ZM3.04517 17.1704C2.97674 16.9651 2.87409 16.7256 2.80566 16.5203C2.87409 16.7256 2.94252 16.9309 3.04517 17.1704C3.1136 17.3757 3.21625 17.6152 3.31889 17.8205C3.21625 17.581 3.1136 17.3757 3.04517 17.1704ZM4.27693 13.1672L4.07163 12.1407C2.80566 11.7301 1.64234 11.1827 0.547447 10.4299H0.513231V10.4642L0 11.1485V11.1827H0.0342154C1.3344 12.0723 2.77145 12.7224 4.27693 13.1672ZM1.02646 11.7986C1.19754 11.9012 1.36862 11.9696 1.53969 12.0723C1.36862 11.9696 1.19754 11.867 1.02646 11.7986ZM4.10585 12.3802C4.14006 12.5855 4.2085 12.825 4.24271 13.0303C4.2085 12.825 4.14006 12.6197 4.10585 12.3802ZM0.307939 10.7379C0.205292 10.8747 0.102646 11.0458 0 11.1827C0.136862 11.0116 0.239508 10.8747 0.307939 10.7379ZM1.84763 14.2621C1.3344 14.091 0.855385 13.8857 0.410585 13.6804H0.37637V13.7146L0.0342154 14.5358V14.57H0.0684308C0.752739 14.8437 1.43705 15.1174 2.12136 15.3227H2.15557V15.2885C2.01871 14.9464 1.91606 14.6042 1.84763 14.2621ZM1.57391 15.1174C1.74499 15.1859 1.91606 15.2201 2.08714 15.2885C1.91606 15.2543 1.74499 15.1859 1.57391 15.1174ZM13.8915 15.9728C13.7204 16.4861 13.5151 16.9651 13.3098 17.4099V17.4441H13.344L13.8572 17.6494L14.1652 17.7862H14.1994V17.752C14.4731 17.0677 14.7468 16.3834 14.9521 15.6991V15.6649H14.9179C14.5758 15.8018 14.2336 15.9044 13.8915 15.9728ZM14.1652 17.7862C14.302 17.5125 14.4047 17.2046 14.5073 16.8966C14.4047 17.2046 14.2678 17.5125 14.1652 17.7862ZM14.9179 15.7333C14.5758 15.836 14.2336 15.9044 13.8915 16.007C14.2336 15.9386 14.5758 15.836 14.9179 15.7333ZM3.5584 2.21824C3.72948 1.70501 3.93477 1.22599 4.14006 0.78119V0.746975H4.10585L3.69526 0.575898L3.31889 0.370605H3.28468V0.404821C3.01096 1.08913 2.73723 1.77344 2.53194 2.45775V2.49196H2.56616C2.87409 2.38931 3.21625 2.28667 3.5584 2.21824ZM16.9366 7.79535L17.0735 7.59006L17.4499 7.04261V7.00839H17.4156C16.1155 6.15301 14.6784 5.50292 13.1729 5.05812H13.1387V5.09233C13.2071 5.43449 13.3098 5.74242 13.3782 6.08458C14.6784 6.49516 15.8075 7.04261 16.9366 7.79535ZM13.1729 5.05812C13.2414 5.40027 13.344 5.70821 13.4124 6.05036C13.344 5.70821 13.2756 5.40027 13.1729 5.05812ZM14.4731 12.7224C14.5415 12.3802 14.61 12.0381 14.6442 11.6959V11.6617H14.61C12.7281 12.4486 10.7779 12.8592 8.72493 12.8592C7.69847 12.8592 6.672 12.7566 5.64554 12.5513H5.61133V12.5855C5.67976 12.8934 5.7824 13.2356 5.88505 13.5435C6.80887 13.7146 7.7669 13.783 8.69071 13.783C10.7094 13.783 12.6255 13.4409 14.4731 12.7224ZM14.4731 12.6882C14.5415 12.346 14.5758 12.0038 14.61 11.6617C14.5758 12.0381 14.5073 12.3802 14.4731 12.6882ZM10.8805 13.6462H10.9831C10.9489 13.612 10.9147 13.612 10.8805 13.6462ZM12.6939 13.2698C12.7281 13.2698 12.7623 13.2698 12.7623 13.2356C12.7281 13.2698 12.7281 13.2698 12.6939 13.2698ZM13.0019 13.2014C13.0361 13.2014 13.0703 13.1672 13.1045 13.1672C13.0703 13.1672 13.0361 13.1672 13.0019 13.2014ZM13.7546 12.9619C13.7888 12.9619 13.823 12.9277 13.8572 12.9277C13.7888 12.9277 13.7546 12.9619 13.7546 12.9619ZM14.0625 12.8592C14.0967 12.8592 14.131 12.825 14.1652 12.825C14.131 12.825 14.0967 12.825 14.0625 12.8592ZM14.61 11.6959C14.5073 11.7301 14.4047 11.7986 14.302 11.8328C14.4047 11.7643 14.5073 11.7301 14.61 11.6959ZM9.88825 12.8592C9.9909 12.8592 10.1278 12.825 10.2304 12.825C10.0935 12.825 9.9909 12.825 9.88825 12.8592ZM10.2988 12.825C10.4015 12.825 10.4699 12.7908 10.5726 12.7908C10.4699 12.7908 10.3673 12.7908 10.2988 12.825ZM10.6752 12.7566C10.7436 12.7566 10.8463 12.7224 10.9147 12.7224C10.8463 12.7566 10.7436 12.7566 10.6752 12.7566ZM11.0174 12.7224C11.12 12.6882 11.2569 12.6882 11.3595 12.6539C11.2227 12.6882 11.12 12.6882 11.0174 12.7224ZM11.3937 12.6539C11.4964 12.6197 11.599 12.6197 11.6675 12.5855C11.599 12.6197 11.4964 12.6539 11.3937 12.6539ZM11.7701 12.5855C11.8385 12.5513 11.9412 12.5513 12.0096 12.5171C11.9412 12.5513 11.8727 12.5513 11.7701 12.5855ZM12.1123 12.5171C12.2149 12.4829 12.3175 12.4486 12.4544 12.4486C12.3518 12.4486 12.2491 12.4829 12.1123 12.5171ZM12.8992 12.3118C12.9676 12.2776 13.0703 12.2776 13.1387 12.2434C13.0361 12.2434 12.9676 12.2776 12.8992 12.3118ZM13.2071 12.2091C13.3098 12.1749 13.4124 12.1407 13.5493 12.1065C13.4467 12.1407 13.344 12.1749 13.2071 12.2091ZM13.9599 11.9354C14.0283 11.9012 14.131 11.867 14.1994 11.8328C14.131 11.9012 14.0625 11.9012 13.9599 11.9354ZM5.9877 12.6539C5.88505 12.6197 5.74819 12.6197 5.64554 12.5855C5.74819 12.5855 5.88505 12.6197 5.9877 12.6539ZM7.49317 12.8592C7.39053 12.8592 7.3221 12.8592 7.21945 12.825C7.3221 12.825 7.42474 12.825 7.49317 12.8592ZM7.15102 12.825C7.04837 12.825 6.94573 12.7908 6.84308 12.7908C6.94573 12.7908 7.04837 12.7908 7.15102 12.825ZM6.77465 12.7566C6.672 12.7566 6.53514 12.7224 6.4325 12.7224C6.56936 12.7224 6.672 12.7566 6.77465 12.7566ZM6.36407 12.6882C6.26142 12.6882 6.19299 12.6539 6.09034 12.6539C6.15877 12.6882 6.26142 12.6882 6.36407 12.6882ZM5.64554 12.5855C5.67976 12.7566 5.71397 12.8934 5.7824 13.0645C5.71397 12.8934 5.67976 12.7224 5.64554 12.5855ZM10.5041 1.67079C10.8805 1.70501 11.2227 1.73922 11.599 1.80765H11.6332V1.77344C11.3937 1.29442 11.12 0.849621 10.8463 0.404821V0.370605H10.8121L10.0593 0.849621H10.0251V0.883837C10.1962 1.15756 10.3673 1.39707 10.5041 1.67079ZM10.1962 1.08913C10.3331 1.29442 10.4357 1.4655 10.5383 1.67079C10.8121 1.70501 11.0516 1.70501 11.3253 1.73922C11.0516 1.70501 10.8121 1.67079 10.5383 1.67079C10.4357 1.4655 10.2988 1.26021 10.1962 1.08913ZM11.599 1.77344C11.4622 1.53393 11.3595 1.29442 11.2227 1.08913C11.3595 1.29442 11.4964 1.53393 11.599 1.77344ZM10.6068 0.541682C10.4357 0.678544 10.2304 0.78119 10.0593 0.918052C10.2646 0.78119 10.4357 0.644329 10.6068 0.541682ZM14.7126 5.29762C15.0548 5.43449 15.3627 5.57135 15.7049 5.74242L15.7391 5.77664V5.74242C15.4311 3.86058 14.9179 2.08138 14.1652 0.404821V0.370605H14.131L14.0283 0.404821L13.344 0.746975H13.3098V0.78119C13.9599 2.21824 14.4047 3.72372 14.7126 5.29762ZM14.6442 4.81861C14.4389 3.79215 14.1652 2.83411 13.7888 1.87608C14.131 2.83411 14.4047 3.79215 14.6442 4.81861ZM14.7126 5.29762C14.7811 5.33184 14.8153 5.33184 14.8837 5.36606C14.8495 5.33184 14.7811 5.29762 14.7126 5.29762ZM15.4654 5.60556C15.5338 5.63978 15.6364 5.67399 15.7049 5.70821C15.6022 5.67399 15.5338 5.63978 15.4654 5.60556ZM13.344 0.746975C13.4124 0.918052 13.5151 1.12334 13.5835 1.29442C13.5151 1.12334 13.4467 0.918052 13.344 0.746975ZM3.07939 3.79215H3.04517C2.70302 3.89479 2.39508 4.03165 2.05292 4.1343C1.53969 6.28987 1.36862 8.51387 1.53969 10.7379C1.84763 10.9089 2.15557 11.08 2.46351 11.2169H2.49772V11.1827C2.25822 8.71916 2.46351 6.25566 3.07939 3.86058V3.79215ZM2.01871 10.9774C1.84763 10.909 1.71077 10.8063 1.57391 10.7379C1.71077 10.8063 1.88185 10.909 2.01871 10.9774Z" fill="white"/>
<path d="M15.3969 14.0909C15.9102 11.9011 16.0812 9.71134 15.9102 7.48734C15.6022 7.31626 15.2943 7.14518 14.9863 7.00832H14.9521V7.04254C15.1916 9.50605 15.0206 12.0038 14.4047 14.3989V14.4331H14.4389C14.7468 14.2962 15.0548 14.1936 15.3969 14.0909ZM15.9444 9.54026C15.9102 10.9089 15.7733 12.3117 15.4654 13.6461C15.7391 12.2775 15.9102 10.9089 15.9444 9.54026ZM15.0206 7.45312C15.0548 7.76106 15.0548 8.069 15.089 8.37694C15.0548 8.069 15.0206 7.76106 15.0206 7.45312ZM14.5073 13.9198C14.4731 14.0567 14.4389 14.2278 14.4047 14.3646C14.4389 14.1936 14.4731 14.0567 14.5073 13.9198ZM12.1807 12.2091H12.2149C12.5228 12.1406 12.865 12.038 13.1729 11.9353C13.6862 9.06125 13.4124 6.08451 12.3518 3.38149C12.0096 3.31306 11.6675 3.27884 11.3253 3.24463H11.2911V3.27884C12.5228 6.11872 12.7966 9.23233 12.1807 12.2433V12.2091ZM12.0438 5.4002C12.078 5.57128 12.1465 5.77657 12.1807 5.94765C12.1465 5.74235 12.1123 5.57128 12.0438 5.4002ZM12.5228 9.64291C12.5228 9.81399 12.5228 10.0193 12.4886 10.1904C12.4886 9.98506 12.5228 9.81399 12.5228 9.64291ZM12.7966 13.5093H12.7623C12.4202 13.5777 12.1123 13.6803 11.7701 13.7488C11.3595 15.0147 10.8121 16.1781 10.0593 17.2729V17.3072H10.0935L10.7436 17.752L10.8121 17.7862H10.8463V17.752C11.7017 16.4518 12.3518 15.0147 12.7966 13.5093ZM12.7623 13.5435C12.6939 13.5777 12.5913 13.5777 12.5228 13.6119C12.5913 13.6119 12.6939 13.5777 12.7623 13.5435ZM10.3331 16.8966C10.2304 17.0334 10.162 17.1703 10.0593 17.3072C10.162 17.1703 10.2646 17.0334 10.3331 16.8966ZM10.5041 17.6151L10.8121 17.8204C10.7094 17.7177 10.6068 17.6835 10.5041 17.6151ZM11.7701 16.1096C11.8043 16.0412 11.8385 16.007 11.8385 15.9385C11.8385 15.9728 11.8043 16.0412 11.7701 16.1096ZM0.513231 7.76106C0.786954 7.58998 1.06068 7.45312 1.30019 7.28205C1.3344 6.93989 1.36862 6.56352 1.40283 6.22137V6.18715C0.923816 6.42666 0.479016 6.70038 0.0342154 6.97411H0V7.00832L0.513231 7.76106ZM0.718524 6.59774C0.479016 6.7346 0.273723 6.87146 0.0342154 7.00832C0.205292 7.24783 0.342154 7.48734 0.513231 7.76106C0.342154 7.52155 0.205292 7.28205 0.0342154 7.00832C0.239508 6.87146 0.479016 6.7346 0.718524 6.59774ZM0.171077 4.10001L0.376369 4.47638V4.5106H0.410585C1.88185 3.86051 3.35311 3.41571 4.92702 3.14198C5.06388 2.83404 5.20074 2.49189 5.3376 2.18395L5.37182 2.14974H5.3376C3.48997 2.38924 1.71077 2.90247 0.0342154 3.65521H0V3.68943L0.171077 4.10001ZM0.923816 4.23688C0.752739 4.30531 0.547446 4.37374 0.376369 4.47638C0.547446 4.40795 0.752739 4.33952 0.923816 4.23688ZM4.31114 2.32081C4.07163 2.35503 3.86634 2.42346 3.62683 2.45767C3.86634 2.42346 4.10585 2.35503 4.31114 2.32081ZM0.0342154 3.65521C0.102646 3.82629 0.171077 3.96315 0.239508 4.13423C0.171077 3.99737 0.102646 3.82629 0.0342154 3.65521ZM7.08259 1.91023C6.91151 2.21817 6.74043 2.5261 6.60357 2.83404V2.86826H6.63779C7.3221 2.79983 8.04062 2.76561 8.75914 2.76561C10.5041 2.76561 12.2833 3.00512 13.9941 3.44992H14.0283V3.41571C13.9257 3.07355 13.823 2.76561 13.7204 2.42346C12.1123 2.04709 10.4357 1.8418 8.75914 1.8418C8.17748 1.8418 7.63004 1.87601 7.08259 1.91023ZM7.1168 2.83404C6.94573 2.83404 6.77465 2.86826 6.63779 2.86826C6.77465 2.83404 6.94573 2.83404 7.1168 2.83404ZM7.28788 2.79983C7.39053 2.79983 7.52739 2.79983 7.63004 2.76561C7.49317 2.79983 7.39053 2.79983 7.28788 2.79983ZM13.0703 3.21041C13.1045 3.21041 13.1387 3.21041 13.1729 3.24463C13.1045 3.21041 13.0703 3.21041 13.0703 3.21041ZM13.4809 3.31306C13.5151 3.31306 13.5493 3.34727 13.5835 3.34727C13.5493 3.31306 13.5151 3.31306 13.4809 3.31306ZM13.8572 2.93669C13.8915 3.10777 13.9599 3.27884 13.9941 3.41571C13.9257 3.24463 13.8915 3.10777 13.8572 2.93669C13.823 2.76561 13.7546 2.59454 13.6862 2.45767C13.7546 2.59454 13.7888 2.76561 13.8572 2.93669ZM9.61453 1.87601C9.75139 1.87601 9.85404 1.87601 9.9909 1.91023C9.85404 1.91023 9.75139 1.91023 9.61453 1.87601ZM10.0251 1.91023C10.1278 1.91023 10.2304 1.91023 10.3673 1.94444C10.2646 1.94444 10.1278 1.91023 10.0251 1.91023ZM10.4699 1.94444C10.5726 1.94444 10.641 1.94444 10.7436 1.97866C10.6752 1.94444 10.5726 1.94444 10.4699 1.94444ZM10.8463 1.97866C10.9831 1.97866 11.0858 2.01287 11.2227 2.01287C11.12 2.01287 10.9831 1.97866 10.8463 1.97866ZM11.2569 2.01287C11.3595 2.01287 11.4964 2.04709 11.599 2.04709C11.4964 2.04709 11.3595 2.04709 11.2569 2.01287ZM11.7017 2.0813C11.8043 2.0813 11.8727 2.11552 11.9754 2.11552C11.907 2.11552 11.8043 2.0813 11.7017 2.0813ZM12.078 2.14974C12.2149 2.18395 12.3175 2.18395 12.4544 2.21817C12.3518 2.18395 12.2149 2.14974 12.078 2.14974ZM12.4886 2.18395C12.5913 2.21817 12.7281 2.21817 12.8308 2.25238C12.7281 2.25238 12.5913 2.21817 12.4886 2.18395ZM12.9334 2.2866C13.0361 2.32081 13.1045 2.32081 13.2071 2.35503C13.1045 2.32081 13.0361 2.2866 12.9334 2.2866ZM8.75914 1.87601C8.72493 1.87601 8.72493 1.87601 8.75914 1.87601V1.87601ZM7.08259 1.94444C7.21945 1.94444 7.35631 1.91023 7.49317 1.91023C7.35631 1.91023 7.21945 1.91023 7.08259 1.94444ZM7.63004 1.91023H7.90376C7.83533 1.87601 7.73268 1.91023 7.63004 1.91023ZM5.0981 14.8437C5.44025 14.9121 5.7824 14.9463 6.12456 15.0147H6.15877V14.9805C4.92702 12.1406 4.6533 9.02703 5.26917 6.01608V5.98186H5.23496C4.92702 6.05029 4.58486 6.15294 4.27693 6.25558C3.76369 9.16389 4.03742 12.1064 5.0981 14.8437ZM5.13231 14.8437C5.30339 14.8779 5.47446 14.9121 5.64554 14.9121C5.47446 14.8779 5.30339 14.8779 5.13231 14.8437ZM5.3376 12.5512C5.30339 12.3801 5.26917 12.1748 5.20074 12.0038C5.23496 12.1748 5.30339 12.3459 5.3376 12.5512ZM4.99545 10.5667C4.96123 10.3956 4.96123 10.1904 4.96123 10.0193C4.96123 10.1904 4.99545 10.3956 4.99545 10.5667ZM4.96123 14.3989C4.92702 14.3304 4.92702 14.262 4.8928 14.2278C4.92702 14.2962 4.96123 14.3646 4.96123 14.3989ZM5.13231 6.59774C5.02966 7.24783 4.96123 7.93214 4.92702 8.58223C4.96123 7.89792 5.02966 7.24783 5.13231 6.59774C5.16653 6.39245 5.20074 6.22137 5.23496 6.01608C5.20074 6.18715 5.16653 6.39245 5.13231 6.59774ZM4.8928 6.11872C4.82437 6.15294 4.75594 6.15294 4.68751 6.18715C4.72173 6.15294 4.79016 6.11872 4.8928 6.11872ZM4.07163 8.44537C4.03742 9.54026 4.10585 10.6009 4.27693 11.6958C4.07163 10.6352 4.03742 9.54026 4.07163 8.44537ZM4.10585 7.93214C4.10585 8.10322 4.07163 8.27429 4.07163 8.44537C4.07163 8.27429 4.07163 8.10322 4.10585 7.93214ZM4.41379 12.517C4.51643 12.996 4.6533 13.4408 4.79016 13.9198C4.6533 13.475 4.51643 12.996 4.41379 12.517Z" fill="white"/>
<path d="M8.72489 5.33216C9.75136 5.33216 10.7778 5.43481 11.8043 5.6401H11.8385V5.60588C11.7701 5.29795 11.6674 4.95579 11.5648 4.64785C10.641 4.47678 9.68292 4.40835 8.75911 4.40835C6.77462 4.40835 4.85855 4.78471 3.01092 5.46902C2.94249 5.81118 2.90827 6.15333 2.87406 6.49549V6.5297H2.90827C4.72169 5.74275 6.70618 5.33216 8.72489 5.33216ZM2.83984 6.49549C2.94249 6.46127 3.04514 6.39284 3.14778 6.35862C3.04514 6.42705 2.94249 6.46127 2.83984 6.49549ZM3.90052 6.0849C4.00317 6.05069 4.10581 6.01647 4.24268 5.98225C4.14003 6.01647 4.00317 6.05069 3.90052 6.0849ZM4.34532 5.98225C4.41375 5.94804 4.5164 5.94804 4.58483 5.91382C4.48218 5.91382 4.41375 5.94804 4.34532 5.98225ZM4.68748 5.87961C4.79012 5.84539 4.89277 5.81118 4.99541 5.81118C4.85855 5.81118 4.75591 5.84539 4.68748 5.87961ZM4.99541 5.77696C5.09806 5.74275 5.20071 5.70853 5.33757 5.70853C5.23492 5.70853 5.09806 5.74275 4.99541 5.77696ZM5.44021 5.67432C5.50865 5.6401 5.61129 5.6401 5.67972 5.60588C5.57708 5.6401 5.50865 5.6401 5.44021 5.67432ZM5.78237 5.60588C5.88501 5.57167 5.98766 5.57167 6.05609 5.53745C5.95345 5.57167 5.88501 5.57167 5.78237 5.60588ZM6.12452 5.53745C6.22717 5.50324 6.36403 5.50324 6.46668 5.46902C6.32981 5.50324 6.22717 5.50324 6.12452 5.53745ZM6.53511 5.46902C6.60354 5.46902 6.70618 5.43481 6.77462 5.43481C6.70618 5.43481 6.63775 5.46902 6.53511 5.46902ZM6.91148 5.40059C7.01412 5.40059 7.08255 5.36638 7.1852 5.36638C7.08255 5.40059 6.97991 5.40059 6.91148 5.40059ZM7.25363 5.36638C7.35628 5.36638 7.49314 5.33216 7.59579 5.33216C7.45892 5.36638 7.35628 5.36638 7.25363 5.36638ZM8.04059 5.33216H8.31431C8.21166 5.29795 8.10902 5.33216 8.04059 5.33216ZM11.4621 5.57167C11.5648 5.60588 11.7016 5.60588 11.8043 5.6401C11.7016 5.60588 11.599 5.57167 11.4621 5.57167ZM9.16969 5.29795H9.44342C9.34077 5.33216 9.27234 5.29795 9.16969 5.29795ZM9.51185 5.33216C9.61449 5.33216 9.75136 5.33216 9.854 5.36638C9.75136 5.33216 9.64871 5.33216 9.51185 5.33216ZM9.95665 5.36638C10.0593 5.36638 10.1277 5.36638 10.2304 5.40059C10.1277 5.36638 10.0251 5.36638 9.95665 5.36638ZM10.333 5.40059C10.4357 5.40059 10.5383 5.43481 10.641 5.43481C10.5383 5.40059 10.4357 5.40059 10.333 5.40059ZM11.12 5.50324C11.2226 5.50324 11.291 5.53745 11.3937 5.53745C11.291 5.53745 11.1884 5.50324 11.12 5.50324ZM9.854 4.47678H9.75136C9.78557 4.44256 9.81979 4.47678 9.854 4.47678ZM7.66422 4.44256H7.56157C7.59579 4.47678 7.63 4.47678 7.66422 4.44256ZM6.91148 4.51099H6.84305C6.87726 4.54521 6.91148 4.54521 6.91148 4.51099ZM5.13228 4.81893H5.06385C5.09806 4.85315 5.13228 4.85315 5.13228 4.81893ZM4.75591 4.92158C4.72169 4.92158 4.68748 4.92158 4.68748 4.95579C4.72169 4.95579 4.75591 4.92158 4.75591 4.92158ZM4.44797 5.02422C4.41375 5.02422 4.37954 5.05844 4.34532 5.05844C4.37954 5.02422 4.41375 5.02422 4.44797 5.02422ZM3.38729 5.33216C3.35307 5.33216 3.31886 5.36638 3.28464 5.36638C3.31886 5.36638 3.35307 5.36638 3.38729 5.33216ZM6.94569 16.5206C6.56932 16.4864 6.22717 16.4522 5.8508 16.3837H5.81658V16.4522C6.05609 16.9312 6.32981 17.376 6.60354 17.8208V17.855H6.63775L7.39049 17.376H7.42471V17.3418C7.25363 17.068 7.08255 16.7943 6.94569 16.5206ZM5.8508 16.418C6.02188 16.4522 6.19295 16.4522 6.39825 16.4864C6.19295 16.4864 6.02188 16.4522 5.8508 16.418ZM10.3672 16.2811C10.5383 15.9732 10.7094 15.6652 10.8462 15.3573V15.3231H10.812C10.1277 15.3915 9.4092 15.4257 8.69068 15.4257C6.91148 15.4257 5.16649 15.1862 3.42151 14.7756C3.52415 15.1178 3.6268 15.4257 3.72944 15.7679C5.33757 16.1442 7.01412 16.3495 8.69068 16.3495C9.27234 16.3495 9.81979 16.3153 10.3672 16.2811ZM7.83529 16.3153C7.69843 16.3153 7.59578 16.3153 7.45892 16.2811C7.59578 16.2811 7.73265 16.3153 7.83529 16.3153ZM6.60354 16.2127C6.46668 16.2127 6.36403 16.1784 6.22717 16.1784C6.36403 16.2127 6.46668 16.2127 6.60354 16.2127ZM6.19295 16.1784C6.09031 16.1784 5.95345 16.1442 5.8508 16.1442C5.98766 16.1442 6.09031 16.1784 6.19295 16.1784ZM5.74815 16.11C5.64551 16.11 5.57708 16.0758 5.47443 16.0758C5.57708 16.11 5.64551 16.11 5.74815 16.11ZM4.9612 16.0074C4.85855 15.9732 4.72169 15.9732 4.61904 15.9389C4.75591 15.9732 4.85855 15.9732 4.9612 16.0074ZM4.5164 15.9047C4.41375 15.8705 4.34532 15.8705 4.24268 15.8363C4.34532 15.8705 4.41375 15.9047 4.5164 15.9047ZM4.14003 15.8363C4.00317 15.8021 3.90052 15.7679 3.76366 15.7679C3.90052 15.8021 4.00317 15.8021 4.14003 15.8363ZM3.86631 14.8783C3.90052 14.8783 3.93474 14.9125 3.96895 14.9125C3.93474 14.8783 3.90052 14.8783 3.86631 14.8783ZM6.60354 15.3231H6.70618C6.67197 15.3573 6.63775 15.3231 6.60354 15.3231ZM10.333 15.3915C10.5041 15.3915 10.6752 15.3573 10.812 15.3573C10.6752 15.3573 10.5041 15.3573 10.333 15.3915ZM10.1619 15.3915C10.0593 15.3915 9.92243 15.3915 9.81979 15.4257C9.95665 15.3915 10.0593 15.3915 10.1619 15.3915ZM10.3672 16.2811C10.2304 16.2811 10.0935 16.3153 9.95665 16.3153C10.0935 16.2811 10.2304 16.2811 10.3672 16.2811ZM9.81979 16.2811H9.54606C9.64871 16.3153 9.71714 16.3153 9.81979 16.2811ZM17.2445 14.0571L17.1077 13.7149V13.6807H17.0735C15.6022 14.3308 14.1309 14.7756 12.557 15.0493C12.4202 15.3573 12.2833 15.6994 12.1464 16.0074L12.1122 16.0416H12.1464C13.9599 15.7679 15.7733 15.2546 17.4498 14.5019H17.484V14.4677L17.2445 14.0571ZM17.313 14.2282C17.2445 14.0571 17.1761 13.886 17.0735 13.7149C17.1419 13.886 17.2103 14.0571 17.313 14.2282ZM12.1122 16.0758C12.557 16.0074 13.036 15.9047 13.4808 15.8021C13.036 15.9047 12.5912 15.9732 12.1122 16.0758ZM13.823 15.7336C14.0625 15.6652 14.2678 15.631 14.5073 15.5626C14.2678 15.631 14.0283 15.6652 13.823 15.7336ZM17.0735 10.6013L16.9708 10.4303V10.396H16.9366C16.6971 10.5671 16.4234 10.704 16.1839 10.8751C16.1496 11.2172 16.1154 11.5936 16.0812 11.9357V12.0042C16.5602 11.7647 17.005 11.4909 17.4498 11.2172H17.484V11.183L17.0735 10.6013ZM16.9366 10.4303C16.7313 10.5671 16.5602 10.6698 16.3549 10.7724C16.5602 10.6698 16.7655 10.5671 16.9366 10.4303ZM15.6022 3.92933C16.1154 4.10041 16.5944 4.3057 17.0392 4.51099H17.0735V4.47678L17.4156 3.68982V3.62139H17.3814C16.6971 3.34767 16.0128 3.07394 15.3285 2.86865H15.2943V2.90287C15.4311 3.24502 15.5338 3.58718 15.6022 3.92933ZM17.0735 4.47678C17.1077 4.37413 17.1419 4.27148 17.2103 4.16884C17.1761 4.27148 17.1077 4.37413 17.0735 4.47678Z" fill="white"/>
<path d="M57.5158 9.26659C57.5158 5.63975 60.4241 2.73145 64.0509 2.73145C67.6093 2.73145 70.5177 5.67397 70.5861 9.26659C70.5177 12.8592 67.6093 15.7675 64.0509 15.8017C60.4241 15.7675 57.5158 12.8592 57.5158 9.26659ZM64.0852 13.4067C66.0354 13.3724 67.6778 11.5248 67.712 9.26659C67.6778 6.97416 66.0696 5.12652 64.0852 5.12652C62.0322 5.12652 60.3899 6.97416 60.4583 9.26659C60.3899 11.5248 62.0322 13.3724 64.0852 13.4067ZM78.0108 5.46868V15.4596H75.2394V5.46868H71.2704V3.24468H81.8087V5.46868H78.0108ZM85.0934 12.7223L84.067 15.4938H80.7823L85.9488 3.24468H89.4046L94.4 15.4938H91.1153L90.0889 12.7223H85.0934ZM87.6938 10.6352H89.4046L87.6938 6.15299L85.983 10.6352H87.6938ZM27.4062 5.46868V15.4596H24.669V5.46868H20.8711V3.24468H31.2041V5.46868H27.4062ZM31.82 9.26659C31.82 5.63975 34.7283 2.73145 38.3552 2.73145C41.9478 2.73145 44.8561 5.67397 44.8903 9.26659C44.8219 12.8592 41.9136 15.7675 38.3552 15.8017C34.7283 15.7675 31.82 12.8592 31.82 9.26659ZM38.3552 13.4067C40.3397 13.3724 41.982 11.5248 41.982 9.26659C41.982 6.97416 40.3397 5.12652 38.3552 5.12652C36.3365 5.12652 34.6941 6.97416 34.7283 9.26659C34.6941 11.5248 36.3022 13.3724 38.3552 13.4067ZM51.1859 15.4596H52.5546V10.8063L57.3789 3.24468H54.2995L51.1859 8.4112L48.2434 3.24468H44.993L49.8173 10.8063V15.4596H51.1859Z" fill="white"/>
</g>
<defs>
<clipPath id="clip0_1931_9203">
<rect width="203" height="17.4499" fill="white" transform="translate(0 0.370605)"/>
</clipPath>
</defs>
</svg>
