<svg xmlns="http://www.w3.org/2000/svg" width="116" height="32" viewBox="0 0 116 32" fill="none">
<g clip-path="url(#clip0_4603_109596)">
<path d="M69.3292 18.8286H61.5273V20.5176H64.4063V27.7325H66.4486V20.5176H69.3292V18.8286Z" fill="white"/>
<path d="M74.6031 18.542C71.9439 18.542 69.7891 20.6546 69.7891 23.2611C69.7891 25.8676 71.9439 27.9802 74.6031 27.9802C77.2623 27.9802 79.4153 25.8676 79.4153 23.2611C79.4153 20.6546 77.2605 18.542 74.6031 18.542ZM76.96 24.6882C76.6471 25.4668 75.9371 26.0539 75.0759 26.2015C74.9229 26.2279 74.7648 26.2419 74.6031 26.2419C74.4414 26.2419 74.2832 26.2279 74.1285 26.2015C73.2673 26.0539 72.5555 25.4668 72.2444 24.6882C72.0651 24.2453 71.9685 23.7638 71.9685 23.2611C71.9685 22.7584 72.0651 22.2733 72.2444 21.8322C72.5555 21.0518 73.2673 20.4665 74.1285 20.3189C74.2832 20.2925 74.4396 20.2785 74.6031 20.2785C74.7665 20.2785 74.9229 20.2943 75.0759 20.3189C75.9371 20.4665 76.6471 21.0518 76.96 21.8322C77.1357 22.2733 77.2342 22.7584 77.2342 23.2611C77.2342 23.7638 77.1357 24.2471 76.96 24.6882Z" fill="white"/>
<path d="M79.4629 18.8091H81.869L84.1134 22.6371L86.3631 18.8091H88.7675L85.1364 24.4175V27.713H83.0923V24.4175L79.4629 18.8091Z" fill="white"/>
<path d="M93.6191 18.542C90.9634 18.542 88.8086 20.6564 88.8086 23.2611C88.8086 25.8658 90.9634 27.9802 93.6191 27.9802C96.2748 27.9802 98.4313 25.8693 98.4313 23.2611C98.4313 20.6564 96.2783 18.542 93.6191 18.542ZM95.9777 24.6882C95.6667 25.4686 94.9548 26.0539 94.0936 26.2015C93.939 26.2296 93.7808 26.2419 93.6191 26.2419C93.4574 26.2419 93.2992 26.2296 93.148 26.2015C92.2851 26.0539 91.575 25.4686 91.2622 24.6882C91.0864 24.2453 90.9862 23.7638 90.9862 23.2611C90.9862 22.7584 91.0847 22.2733 91.2622 21.8322C91.575 21.0518 92.2868 20.4683 93.148 20.3189C93.301 20.2925 93.4591 20.2785 93.6191 20.2785C93.779 20.2785 93.9407 20.2943 94.0936 20.3189C94.9548 20.4683 95.6667 21.0518 95.9777 21.8322C96.1553 22.2733 96.2537 22.7584 96.2537 23.2611C96.2537 23.7655 96.157 24.2471 95.9777 24.6882Z" fill="white"/>
<path d="M112.326 18.811H109.782L106.105 27.7132H108.376L109.121 25.7552H112.986L113.733 27.7132H116.002L112.326 18.811ZM109.717 24.1962L111.055 20.6793L112.394 24.1962H109.717Z" fill="white"/>
<path d="M106.673 18.8286H98.8711V20.5176H101.75V27.7325H103.792V20.5176H106.673V18.8286Z" fill="white"/>
<path d="M47.6268 21.3596C46.7709 21.3596 46.0802 21.6707 45.6847 22.2348L45.5634 22.4071V18.4209H43.7109V27.7343H45.5634V26.7553L45.6865 26.9487C46.0555 27.5269 46.7533 27.8591 47.6022 27.8591C48.4511 27.8591 49.2614 27.5339 49.8203 26.9434C50.3792 26.3528 50.6868 25.525 50.6868 24.6093C50.6868 23.6936 50.3809 22.8605 49.8238 22.2717C49.2701 21.6847 48.4898 21.3596 47.6286 21.3596H47.6268ZM47.1523 26.2193C46.7146 26.2193 46.3069 26.0646 46.0081 25.7816C45.6952 25.4864 45.523 25.0716 45.523 24.6093C45.523 23.662 46.2137 22.9748 47.1646 22.9748C48.1154 22.9748 48.7675 23.6321 48.7675 24.6093C48.7675 25.5865 48.133 26.2193 47.1523 26.2193Z" fill="white"/>
<path d="M56.2484 21.4861L54.9443 25.409L54.8827 25.5936L54.8177 25.4108L53.4239 21.4861H51.4062L53.9178 27.5498L53.9284 27.5744L53.9196 27.599L53.7667 27.9874C53.5435 28.5235 53.1375 28.7818 52.5276 28.7818C52.2956 28.7818 52.104 28.7379 51.9423 28.6887L51.7296 30.1809C52.0759 30.3162 52.4626 30.383 52.9125 30.383C54.1955 30.383 54.9548 29.817 55.4487 28.4918L58.1553 21.4844H56.2519L56.2484 21.4861Z" fill="white"/>
<path d="M50.4868 2.97656L47.8926 11.4604L45.3441 2.97656H42.2051L46.1754 14.863H49.1352L51.6345 6.88365L54.2058 14.863H57.1656L60.9479 2.97656H57.9969L55.5451 11.3901L52.8771 2.97656H50.4868Z" fill="white"/>
<path d="M75.9609 2.97656L80.6132 14.863H83.5062L88.1093 2.97656H85.1865L82.1423 11.557L79.0982 2.97656H75.9609Z" fill="white"/>
<path d="M95.1812 2.74023C91.71 2.74023 89.1914 5.34848 89.1914 8.94448C89.1914 12.5405 91.7821 15.1013 95.4906 15.1013C97.387 15.1013 99.1059 14.6074 100.336 13.711L99.6332 11.4912C98.5927 12.2698 97.2007 12.7145 95.7981 12.7145C93.6363 12.7145 92.2883 11.5668 92.1002 9.56666L92.0949 9.51217H100.888V9.11145C100.888 5.30102 98.5944 2.74199 95.1812 2.74199V2.74023ZM92.181 7.59642L92.1951 7.5349C92.5642 5.93375 93.7084 4.9372 95.1812 4.9372C96.6541 4.9372 97.7596 5.98296 97.9775 7.53842L97.9863 7.59466H92.181V7.59642Z" fill="white"/>
<path d="M110.81 2.71582C109.014 2.71582 107.509 3.51903 106.683 4.91806L106.59 5.06043V2.97594H103.729V14.8624H106.59V8.51582C106.59 6.528 107.753 5.29243 109.625 5.29243C111.341 5.29243 112.139 6.29424 112.139 8.44552V14.8624H115V7.30837C115 4.30291 113.552 2.71582 110.81 2.71582Z" fill="white"/>
<path d="M68.6208 2.72803C65.1391 2.72803 62.3164 5.49621 62.3164 8.90942C62.3164 12.3226 65.1373 15.0891 68.6208 15.0891C72.1043 15.0891 74.9217 12.3226 74.9217 8.90942C74.9217 5.49621 72.0991 2.72803 68.6208 2.72803ZM71.7089 10.7777C71.2994 11.7989 70.3696 12.5669 69.2413 12.7603C69.0409 12.7937 68.8335 12.813 68.6208 12.813C68.4082 12.813 68.2025 12.7937 68.0004 12.7603C66.872 12.5669 65.9405 11.7989 65.5328 10.7777C65.299 10.1977 65.1725 9.56676 65.1725 8.90766C65.1725 8.24857 65.299 7.61409 65.5328 7.03585C65.9405 6.01469 66.872 5.24839 68.0004 5.0533C68.2025 5.01991 68.4082 5.00057 68.6208 5.00057C68.8335 5.00057 69.0391 5.01991 69.2413 5.0533C70.3696 5.24663 71.2994 6.01469 71.7089 7.03585C71.9409 7.61409 72.0692 8.24857 72.0692 8.90766C72.0692 9.56676 71.9409 10.1977 71.7089 10.7777Z" fill="white"/>
<path d="M18.3043 26.4176C19.6717 27.2278 19.9846 27.9554 19.9846 29.0346C19.9846 30.5742 18.7279 31.7008 17.0547 31.7008H27.456V21.1343L18.3043 26.4176Z" fill="#53555C"/>
<path d="M27.4549 0L20.1504 6.35012L27.4549 10.5683C27.4725 8.97946 27.9452 8.34321 28.8803 7.80364C30.2125 7.03382 31.8172 7.55934 32.6538 9.00758L27.4549 0Z" fill="#D20A32"/>
<path d="M27.4529 10.6651C27.4529 11.1801 27.4529 11.5738 27.4529 11.5738V31.7015L36 16.8975C36.3744 16.2507 36.3744 15.4528 36 14.8042L32.6536 9.00773C31.817 7.55948 30.2123 7.03397 28.8783 7.80379C27.924 8.35391 27.4512 9.00421 27.4512 10.6669L27.4529 10.6651Z" fill="#7D7D83"/>
<path d="M19.5146 27.416C19.8766 27.8941 19.9838 28.4055 19.9838 29.0365C19.9838 30.5761 18.7272 31.7027 17.054 31.7027H15.9766H23.2406L19.5146 27.416Z" fill="#404246"/>
<path d="M5.42564 10.2218C4.6277 9.36236 4.51345 8.04066 5.19364 6.85254L0 15.8513L9.1517 21.1346V14.5085L5.42564 10.2218Z" fill="#B7B7B7"/>
<path d="M6.04249 10.7138C5.80522 10.5767 5.59783 10.4097 5.42383 10.2217L9.14989 14.5084V10.5662C7.76492 11.3465 6.97752 11.2534 6.04249 10.7138Z" fill="#969696"/>
<path d="M9.23581 10.5191C9.68048 10.2625 10.0232 10.0639 10.0232 10.0639L27.4548 0H10.3589C9.61193 0 8.92121 0.39897 8.54684 1.04576L5.20042 6.844C4.36381 8.29224 4.71181 9.94612 6.04405 10.7142C6.99842 11.2643 7.79636 11.3504 9.23581 10.5191Z" fill="#FF0A20"/>
<path d="M18.3047 5.28327L20.1519 6.35012L27.4564 0L18.3047 5.28327Z" fill="#A80014"/>
<path d="M18.219 26.3689C17.7726 26.1123 17.4316 25.9154 17.4316 25.9154L0 15.8516L8.54709 30.6556C8.92146 31.3024 9.61218 31.7014 10.3592 31.7014H17.0538C18.727 31.7014 19.9836 30.5748 19.9836 29.0351C19.9836 27.9331 19.6585 27.1985 18.2173 26.3689H18.219Z" fill="white"/>
</g>
<defs>
<clipPath id="clip0_4603_109596">
<rect width="116" height="31.7014" fill="white"/>
</clipPath>
</defs>
</svg>