<svg xmlns="http://www.w3.org/2000/svg" width="120" height="32" viewBox="0 0 120 32" fill="none">
<path d="M18.3043 26.5548C19.6717 27.365 19.9846 28.0926 19.9846 29.1718C19.9846 30.7114 18.7279 31.838 17.0547 31.838H27.456V21.2715L18.3043 26.5548Z" fill="#575A60"/>
<path d="M27.4549 0.136719L20.1504 6.48685L27.4549 10.705C27.4725 9.11619 27.9453 8.47994 28.8803 7.94037C30.2125 7.17055 31.8172 7.69606 32.6538 9.14431L27.4549 0.136719Z" fill="#D30C28"/>
<path d="M27.4529 10.8018C27.4529 11.3168 27.4529 11.7105 27.4529 11.7105V31.8383L36 17.0342C36.3744 16.3874 36.3744 15.5895 36 14.9409L32.6536 9.14445C31.817 7.6962 30.2123 7.17069 28.8783 7.94051C27.924 8.49063 27.4512 9.14093 27.4512 10.8036L27.4529 10.8018Z" fill="#6F7278"/>
<path d="M19.5146 27.5532C19.8766 28.0313 19.9838 28.5427 19.9838 29.1737C19.9838 30.7133 18.7272 31.84 17.054 31.84H15.9766H23.2406L19.5146 27.5532Z" fill="#414449"/>
<path d="M5.42565 10.359C4.6277 9.49957 4.51346 8.17787 5.19364 6.98975L0 15.9885L9.15171 21.2718V14.6458L5.42565 10.359Z" fill="#A5A5A5"/>
<path d="M6.04445 10.851C5.80718 10.7139 5.59978 10.5469 5.42578 10.3589L9.15185 14.6456V10.7034C7.76688 11.4837 6.97948 11.3906 6.04445 10.851Z" fill="#838688"/>
<path d="M9.23582 10.6558C9.68049 10.3992 10.0232 10.2006 10.0232 10.2006L27.4549 0.136719H10.3589C9.61194 0.136719 8.92121 0.535689 8.54685 1.18248L5.20042 6.98073C4.36381 8.42898 4.71181 10.0829 6.04406 10.8509C6.99842 11.401 7.79636 11.4872 9.23582 10.6558Z" fill="#E60A1E"/>
<path d="M18.3027 5.42L20.1499 6.48685L27.4544 0.136719L18.3027 5.42Z" fill="#A1192E"/>
<path d="M18.2191 26.5056C17.7726 26.249 17.4317 26.0522 17.4317 26.0522L0 15.9883L8.54711 30.7924C8.92147 31.4392 9.6122 31.8381 10.3592 31.8381H17.0538C18.727 31.8381 19.9837 30.7115 19.9837 29.1719C19.9837 28.0699 19.6585 27.3352 18.2173 26.5056H18.2191Z" fill="#C7C7C7"/>
<path d="M69.3253 18.9648H61.5234V20.6539H64.4024V27.8687H66.4447V20.6539H69.3253V18.9648Z" fill="black"/>
<path d="M74.6011 18.6792C71.9419 18.6792 69.7871 20.7918 69.7871 23.3983C69.7871 26.0048 71.9419 28.1174 74.6011 28.1174C77.2603 28.1174 79.4134 26.0048 79.4134 23.3983C79.4134 20.7918 77.2586 18.6792 74.6011 18.6792ZM76.958 24.8255C76.6452 25.6041 75.9351 26.1911 75.0739 26.3387C74.921 26.3651 74.7628 26.3792 74.6011 26.3792C74.4394 26.3792 74.2812 26.3651 74.1266 26.3387C73.2654 26.1911 72.5535 25.6041 72.2424 24.8255C72.0632 24.3825 71.9665 23.901 71.9665 23.3983C71.9665 22.8956 72.0632 22.4105 72.2424 21.9694C72.5535 21.189 73.2654 20.6037 74.1266 20.4561C74.2812 20.4297 74.4377 20.4157 74.6011 20.4157C74.7646 20.4157 74.921 20.4315 75.0739 20.4561C75.9351 20.6037 76.6452 21.189 76.958 21.9694C77.1338 22.4105 77.2322 22.8956 77.2322 23.3983C77.2322 23.901 77.1338 24.3843 76.958 24.8255Z" fill="black"/>
<path d="M79.4609 18.9463H81.8671L84.1115 22.7743L86.3612 18.9463H88.7656L85.1344 24.5547V27.8502H83.0903V24.5547L79.4609 18.9463Z" fill="black"/>
<path d="M93.6191 18.6792C90.9634 18.6792 88.8086 20.7936 88.8086 23.3983C88.8086 26.003 90.9634 28.1174 93.6191 28.1174C96.2748 28.1174 98.4313 26.0065 98.4313 23.3983C98.4313 20.7936 96.2783 18.6792 93.6191 18.6792ZM95.9778 24.8255C95.6667 25.6058 94.9548 26.1911 94.0936 26.3387C93.939 26.3668 93.7808 26.3792 93.6191 26.3792C93.4574 26.3792 93.2992 26.3668 93.1481 26.3387C92.2851 26.1911 91.575 25.6058 91.2622 24.8255C91.0864 24.3825 90.9862 23.901 90.9862 23.3983C90.9862 22.8956 91.0847 22.4105 91.2622 21.9694C91.575 21.189 92.2868 20.6055 93.1481 20.4561C93.301 20.4297 93.4591 20.4157 93.6191 20.4157C93.779 20.4157 93.9407 20.4315 94.0936 20.4561C94.9548 20.6055 95.6667 21.189 95.9778 21.9694C96.1553 22.4105 96.2537 22.8956 96.2537 23.3983C96.2537 23.9027 96.157 24.3843 95.9778 24.8255Z" fill="black"/>
<path d="M112.324 18.9482H109.78L106.104 27.8504H108.374L109.12 25.8924H112.984L113.731 27.8504H116L112.324 18.9482ZM109.715 24.3335L111.053 20.8165L112.392 24.3335H109.715Z" fill="black"/>
<path d="M106.671 18.9648H98.8691V20.6539H101.748V27.8687H103.79V20.6539H106.671V18.9648Z" fill="black"/>
<path d="M47.6229 21.4963C46.767 21.4963 46.0762 21.8074 45.6808 22.3716L45.5595 22.5438V18.5576H43.707V27.871H45.5595V26.8921L45.6826 27.0854C46.0516 27.6636 46.7494 27.9958 47.5983 27.9958C48.4472 27.9958 49.2575 27.6707 49.8164 27.0801C50.3753 26.4896 50.6829 25.6618 50.6829 24.7461C50.6829 23.8304 50.377 22.9973 49.8199 22.4085C49.2663 21.8214 48.4859 21.4963 47.6247 21.4963H47.6229ZM47.1484 26.356C46.7107 26.356 46.303 26.2013 46.0042 25.9184C45.6913 25.6231 45.5191 25.2083 45.5191 24.7461C45.5191 23.7987 46.2098 23.1115 47.1607 23.1115C48.1115 23.1115 48.7636 23.7688 48.7636 24.7461C48.7636 25.7233 48.1291 26.356 47.1484 26.356Z" fill="black"/>
<path d="M56.2445 21.6233L54.9404 25.5463L54.8788 25.7308L54.8138 25.548L53.42 21.6233H51.4023L53.9139 27.687L53.9245 27.7116L53.9157 27.7362L53.7628 28.1246C53.5396 28.6607 53.1336 28.919 52.5237 28.919C52.2917 28.919 52.1001 28.8751 51.9384 28.8259L51.7257 30.3181C52.072 30.4534 52.4586 30.5202 52.9086 30.5202C54.1916 30.5202 54.9509 29.9543 55.4448 28.629L58.1514 21.6216H56.248L56.2445 21.6233Z" fill="black"/>
<path d="M50.4868 3.11182L47.8926 11.5956L45.3441 3.11182H42.2051L46.1755 14.9983H49.1352L51.6345 7.01891L54.2058 14.9983H57.1656L60.9479 3.11182H57.9969L55.5451 11.5253L52.8771 3.11182H50.4868Z" fill="black"/>
<path d="M75.9609 3.11182L80.6132 14.9983H83.5062L88.1093 3.11182H85.1865L82.1423 11.6923L79.0982 3.11182H75.9609Z" fill="black"/>
<path d="M95.1832 2.87695C91.712 2.87695 89.1934 5.4852 89.1934 9.0812C89.1934 12.6772 91.784 15.238 95.4925 15.238C97.3889 15.238 99.1079 14.7441 100.338 13.8478L99.6351 11.6279C98.5946 12.4065 97.2026 12.8512 95.8001 12.8512C93.6383 12.8512 92.2902 11.7035 92.1022 9.70339L92.0969 9.6489H100.89V9.24817C100.89 5.43774 98.5964 2.87871 95.1832 2.87871V2.87695ZM92.183 7.73314L92.1971 7.67163C92.5662 6.07047 93.7103 5.07393 95.1832 5.07393C96.656 5.07393 97.7615 6.11969 97.9795 7.67514L97.9883 7.73138H92.183V7.73314Z" fill="black"/>
<path d="M110.81 2.85205C109.014 2.85205 107.509 3.65526 106.683 5.0543L106.59 5.19666V3.11217H103.729V14.9987H106.59V8.65206C106.59 6.66424 107.753 5.42866 109.625 5.42866C111.341 5.42866 112.139 6.43048 112.139 8.58176V14.9987H115V7.4446C115 4.43914 113.552 2.85205 110.81 2.85205Z" fill="black"/>
<path d="M68.6208 2.86426C65.1391 2.86426 62.3164 5.63244 62.3164 9.04566C62.3164 12.4589 65.1373 15.2253 68.6208 15.2253C72.1044 15.2253 74.9218 12.4589 74.9218 9.04566C74.9218 5.63244 72.0991 2.86426 68.6208 2.86426ZM71.7089 10.914C71.2994 11.9351 70.3696 12.7032 69.2413 12.8965C69.0409 12.9299 68.8335 12.9492 68.6208 12.9492C68.4082 12.9492 68.2025 12.9299 68.0004 12.8965C66.872 12.7032 65.9405 11.9351 65.5328 10.914C65.299 10.334 65.1725 9.703 65.1725 9.0439C65.1725 8.38481 65.299 7.75033 65.5328 7.17208C65.9405 6.15093 66.872 5.38463 68.0004 5.18953C68.2025 5.15614 68.4082 5.13681 68.6208 5.13681C68.8335 5.13681 69.0391 5.15614 69.2413 5.18953C70.3696 5.38287 71.2994 6.15093 71.7089 7.17208C71.9409 7.75033 72.0692 8.38481 72.0692 9.0439C72.0692 9.703 71.9409 10.334 71.7089 10.914Z" fill="black"/>
</svg>