<svg width="78" height="15" viewBox="0 0 78 15" fill="none" xmlns="http://www.w3.org/2000/svg">
<path d="M38.873 7.84366C38.873 3.99629 41.9581 0.911133 45.8055 0.911133C49.5803 0.911133 52.6654 4.03258 52.738 7.84366C52.6654 11.6547 49.5803 14.7399 45.8055 14.7762C41.9581 14.7399 38.873 11.6547 38.873 7.84366ZM45.8418 12.2355C47.9107 12.1992 49.6529 10.2392 49.6892 7.84366C49.6529 5.41183 47.947 3.45185 45.8418 3.45185C43.664 3.45185 41.9218 5.41183 41.9944 7.84366C41.9218 10.2392 43.664 12.1992 45.8418 12.2355ZM60.6142 3.81481V14.4132H57.6743V3.81481H53.4639V1.45557H64.6431V3.81481H60.6142ZM68.1275 11.5096L67.0386 14.4495H63.5542L69.0349 1.45557H72.7008L78 14.4495H74.5156L73.4267 11.5096H68.1275ZM70.886 9.2955H72.7008L70.886 4.54073L69.0712 9.2955H70.886ZM6.93253 3.81481V14.4132H4.02885V3.81481H0V1.45557H10.9614V3.81481H6.93253ZM11.6147 7.84366C11.6147 3.99629 14.6999 0.911133 18.5472 0.911133C22.3583 0.911133 25.4435 4.03258 25.4798 7.84366C25.4072 11.6547 22.322 14.7399 18.5472 14.7762C14.6999 14.7399 11.6147 11.6547 11.6147 7.84366ZM18.5472 12.2355C20.6524 12.1992 22.3946 10.2392 22.3946 7.84366C22.3946 5.41183 20.6524 3.45185 18.5472 3.45185C16.4058 3.45185 14.6636 5.41183 14.6999 7.84366C14.6636 10.2392 16.3695 12.1992 18.5472 12.2355ZM32.1582 14.4132H33.6101V9.47698L38.7278 1.45557H35.4611L32.1582 6.93626L29.0368 1.45557H25.5886L30.7064 9.47698V14.4132H32.1582Z" fill="white"/>
</svg>
