<svg width="166" height="24" viewBox="0 0 166 24" fill="none" xmlns="http://www.w3.org/2000/svg">
<path d="M97.9326 12.2889C97.9326 9.24518 100.215 6.9624 103.31 6.9624C105.288 6.9624 107.013 7.97697 107.825 9.60027L105.948 10.7163C105.491 9.75246 104.527 9.14372 103.31 9.14372C101.534 9.14372 100.165 10.5134 100.165 12.3396C100.165 14.1658 101.534 15.5355 103.31 15.5355C104.527 15.5355 105.542 14.9267 105.998 13.9629L107.875 15.0282C107.013 16.6515 105.288 17.6661 103.31 17.6661C100.215 17.6153 97.9326 15.2818 97.9326 12.2889Z" fill="white"/>
<path d="M120.1 7.21604V17.3617H117.918V15.8906C117.157 16.9559 115.94 17.6153 114.367 17.6153C111.628 17.6153 109.294 15.2818 109.294 12.2889C109.294 9.24518 111.577 6.9624 114.367 6.9624C115.94 6.9624 117.157 7.62187 117.918 8.68717V7.26677H120.1V7.21604ZM117.918 12.2889C117.918 10.4119 116.549 9.04226 114.722 9.04226C112.896 9.04226 111.526 10.4119 111.526 12.2889C111.526 14.1658 112.896 15.5355 114.722 15.5355C116.549 15.5355 117.918 14.1658 117.918 12.2889Z" fill="white"/>
<path d="M133.949 12.2889C133.949 15.3326 131.666 17.6153 128.876 17.6153C127.303 17.6153 126.086 16.9559 125.325 15.8906V21.3692H123.194V7.16532H125.376V8.68717C126.137 7.62187 127.354 6.9624 128.927 6.9624C131.666 6.9624 133.949 9.29591 133.949 12.2889ZM131.767 12.2889C131.767 10.4119 130.398 9.04226 128.572 9.04226C126.745 9.04226 125.376 10.4119 125.376 12.2889C125.376 14.1658 126.745 15.5355 128.572 15.5355C130.398 15.5355 131.767 14.1658 131.767 12.2889Z" fill="white"/>
<path d="M136.132 4.47606C136.132 3.71513 136.741 3.05566 137.552 3.05566C138.364 3.05566 138.973 3.6644 138.973 4.47606C138.973 5.23698 138.364 5.89645 137.552 5.89645C136.741 5.89645 136.132 5.23698 136.132 4.47606ZM136.436 7.21539H138.618V17.361H136.436V7.21539Z" fill="white"/>
<path d="M144.905 9.29516V14.1651C144.905 15.484 145.767 15.4333 147.441 15.3826V17.361C144.093 17.7668 142.724 16.8537 142.724 14.2158V9.34589H140.847V7.2153H142.724V5.03398L144.905 4.37451V7.2153H147.441V9.34589H144.905V9.29516Z" fill="white"/>
<path d="M159.821 7.21604V17.3617H157.639V15.8906C156.879 16.9559 155.661 17.6153 154.088 17.6153C151.349 17.6153 149.016 15.2818 149.016 12.2889C149.016 9.24518 151.298 6.9624 154.088 6.9624C155.661 6.9624 156.879 7.62187 157.639 8.68717V7.26677H159.821V7.21604ZM157.639 12.2889C157.639 10.4119 156.27 9.04226 154.444 9.04226C152.617 9.04226 151.248 10.4119 151.248 12.2889C151.248 14.1658 152.617 15.5355 154.444 15.5355C156.27 15.5355 157.639 14.1658 157.639 12.2889Z" fill="white"/>
<path d="M162.865 2.54834H165.047V17.361H162.865V2.54834Z" fill="white"/>
<path d="M45.9358 7.21533L42.7906 17.3103H40.66L38.5802 10.5127L36.4496 17.3103H34.319L31.1738 7.21533H33.4059L35.3843 14.1651L37.4641 7.21533H39.544L41.6239 14.1651L43.6023 7.21533H45.9358Z" fill="white"/>
<path d="M47.3062 12.2381C47.3062 9.24512 49.6904 6.91162 52.6326 6.91162C55.5749 6.91162 57.9591 9.1944 57.9591 12.2381C57.9591 15.2311 55.5749 17.5646 52.6326 17.5646C49.6904 17.5646 47.3062 15.2311 47.3062 12.2381ZM55.7778 12.2381C55.7778 10.4119 54.4081 9.04221 52.6326 9.04221C50.8571 9.04221 49.4875 10.4119 49.4875 12.2381C49.4875 14.0643 50.8571 15.434 52.6326 15.434C54.4081 15.434 55.7778 14.0643 55.7778 12.2381Z" fill="white"/>
<path d="M69.4237 7.21533L65.4669 17.3103H62.9304L58.9736 7.21533H61.3579L64.1987 14.8753L66.9887 7.21533H69.4237Z" fill="white"/>
<path d="M76.0177 15.5349C77.2351 15.5349 78.1483 14.9769 78.6048 14.2667L80.3803 15.332C79.4672 16.7016 77.9453 17.5133 75.9669 17.5133C72.6189 17.5133 70.4883 15.2305 70.4883 12.1868C70.4883 9.19385 72.6696 6.86035 75.8148 6.86035C78.8077 6.86035 80.8876 9.29531 80.8876 12.1868C80.8876 12.4912 80.8369 12.7956 80.7861 13.0999H72.7711C73.1262 14.7232 74.3944 15.5349 76.0177 15.5349ZM78.7063 11.3752C78.4019 9.65041 77.1337 8.88948 75.8148 8.88948C74.1914 8.88948 73.0754 9.85332 72.7711 11.3752H78.7063Z" fill="white"/>
<path d="M92.7077 11.0713V17.2602H90.5263V11.325C90.5263 9.80314 89.6132 8.99148 88.2436 8.99148C86.8232 8.99148 85.6564 9.85386 85.6564 11.883V17.3109H83.4751V7.21599H85.6564V8.4842C86.3159 7.4189 87.4319 6.91162 88.8016 6.91162C91.0843 6.91162 92.7077 8.4842 92.7077 11.0713Z" fill="white"/>
<path d="M1.54736 6.8087L6.11291 11.3742L15.8527 1.63441C14.4831 1.0764 13.0627 0.822754 11.5916 0.822754C7.33039 0.822754 3.52577 3.10553 1.54736 6.8087Z" fill="white"/>
<path d="M17.0221 2.19238L12.4565 6.75793L17.0728 11.3742L21.6384 6.80866C21.1311 5.84482 20.4716 4.93171 19.66 4.17079C18.8483 3.40986 17.9859 2.75039 17.0221 2.19238Z" fill="white"/>
<path d="M17.832 12.2368L22.0932 16.4979C22.6512 15.1283 22.9049 13.7079 22.9049 12.2368C22.9049 10.7656 22.6005 9.29452 22.0932 7.97559L17.832 12.2368Z" fill="white"/>
<path d="M17.0221 22.2809C18.9498 21.2157 20.5731 19.6431 21.6384 17.6647L17.0728 13.0991L12.4565 17.7154L17.0221 22.2809Z" fill="white"/>
<path d="M0.126953 12.2368C0.126953 18.5271 5.25051 23.6506 11.5408 23.6506C13.0119 23.6506 14.4831 23.3463 15.802 22.839L0.989335 7.97559C0.431323 9.29452 0.126953 10.7656 0.126953 12.2368Z" fill="white"/>
</svg>
