<svg width="16" height="12" viewBox="0 0 16 12" fill="none" xmlns="http://www.w3.org/2000/svg">
<path  d="M15.6753 9.80551C15.5865 10.0218 15.5303 10.2601 15.4024 10.4502C15.1323 10.8524 14.7217 11.0167 14.2436 11.0171C12.9311 11.0175 11.619 11.0171 10.3065 11.0171C7.409 11.0171 4.51155 11.0171 1.61447 11.0171C1.02291 11.0171 0.563024 10.778 0.307277 10.2347C0.218107 10.0453 0.170297 9.81803 0.169538 9.60782C0.160431 6.91223 0.16157 4.21702 0.164985 1.52143C0.166123 0.704858 0.753507 0.112921 1.5678 0.112162C5.8028 0.108747 10.0378 0.109127 14.2728 0.112162C14.9915 0.112542 15.5239 0.567119 15.6532 1.26682C15.6567 1.28617 15.6677 1.304 15.6753 1.3226V9.80551ZM1.73096 1.02245C1.76929 1.06533 1.7875 1.08772 1.80761 1.10783C3.51133 2.80282 5.21276 4.4997 6.9199 6.19128C7.51601 6.78208 8.33068 6.77563 8.92945 6.18141C10.6244 4.49933 12.316 2.81382 14.0087 1.12946C14.0376 1.10062 14.0622 1.06723 14.1002 1.02245H1.73096ZM1.82051 10.0962H14.0193C12.7675 8.81895 11.49 7.51517 10.1934 6.19166C9.97255 6.41705 9.76992 6.62688 9.56464 6.83368C9.14649 7.25487 8.64448 7.49961 8.04837 7.5311C7.35322 7.56753 6.76432 7.32431 6.27446 6.83444C6.06842 6.6284 5.86579 6.41857 5.64533 6.19393C4.34952 7.51593 3.07155 8.81971 1.82051 10.0962ZM1.08287 1.66144V9.47197C2.38968 8.1405 3.67069 6.83558 4.92173 5.56102C3.66766 4.28683 2.38702 2.98609 1.08287 1.66106V1.66144ZM14.7604 1.66903C13.4562 2.99368 12.1733 4.29708 10.9375 5.55229C12.1866 6.82533 13.4661 8.12987 14.7604 9.44921V1.66903Z" fill="white"/>
</svg>
