<svg width="17" height="16" viewBox="0 0 17 16" fill="none" xmlns="http://www.w3.org/2000/svg">
<g clip-path="url(#clip0_2579_21866)">
<path d="M9.42699 8.35115C9.42699 10.7207 7.52259 12.6416 5.17353 12.6416C2.82446 12.6416 0.919922 10.7203 0.919922 8.35115C0.919922 5.98202 2.82432 4.06055 5.17353 4.06055C7.52274 4.06055 9.42699 5.98159 9.42699 8.35115Z" fill="white"/>
<path d="M14.0935 8.35128C14.0935 10.5817 13.1413 12.3905 11.9667 12.3905C10.792 12.3905 9.83984 10.5817 9.83984 8.35128C9.83984 6.12085 10.7919 4.31201 11.9665 4.31201C13.1411 4.31201 14.0933 6.12027 14.0933 8.35128" fill="white"/>
<path d="M16.0017 8.35097C16.0017 10.3489 15.6669 11.9695 15.2537 11.9695C14.8406 11.9695 14.5059 10.3493 14.5059 8.35097C14.5059 6.35262 14.8407 4.73242 15.2537 4.73242C15.6667 4.73242 16.0017 6.35247 16.0017 8.35097Z" fill="white"/>
</g>
<defs>
<clipPath id="clip0_2579_21866">
<rect width="15.0819" height="15.0819" fill="white" transform="translate(0.919922 0.918457)"/>
</clipPath>
</defs>
</svg>
