<svg  width="21" height="21" viewBox="0 0 21 21" fill="none">
<g clip-path="url(#clip0_9214_7167)">
<path d="M18.4133 6.07534H15.1167V4.22564C15.1167 4.00368 14.9367 3.82368 14.7148 3.82368H6.82761C6.60566 3.82368 6.42565 4.00368 6.42565 4.22564V6.07538H3.12907C2.4244 6.07534 1.85116 6.64862 1.85116 7.35329V13.3589C1.85116 14.0636 2.4244 14.6369 3.12907 14.6369H6.42565V18.2438C6.42565 18.4657 6.60566 18.6457 6.82761 18.6457H14.7148C14.9368 18.6457 15.1168 18.4657 15.1168 18.2438V14.6369H18.4134C19.118 14.6369 19.6913 14.0636 19.6913 13.3589V7.35329C19.6912 6.64862 19.118 6.07534 18.4133 6.07534ZM15.1167 6.87923H15.9671V7.88561H15.1167V6.87923ZM7.22954 4.6276H14.3128V7.88565H7.22954V4.6276ZM5.57522 6.87927H6.42565V7.88565H5.57522V6.87927ZM14.3129 17.8418H7.22954V12.9231H14.3128L14.3129 17.8418ZM18.8874 13.3589C18.8874 13.6203 18.6747 13.833 18.4134 13.833H15.1167V12.9231H15.7802C16.0022 12.9231 16.1822 12.7431 16.1822 12.5212C16.1822 12.2992 16.0022 12.1192 15.7802 12.1192H14.7148H6.82761H5.76222C5.54027 12.1192 5.36026 12.2992 5.36026 12.5212C5.36026 12.7431 5.54027 12.9231 5.76222 12.9231H6.42569V13.833H3.12907C2.86776 13.833 2.65508 13.6203 2.65508 13.3589V7.35329C2.65508 7.09194 2.86776 6.87923 3.12907 6.87923H4.77133V8.28754C4.77133 8.5095 4.9513 8.6895 5.17329 8.6895H16.3691C16.5911 8.6895 16.7711 8.5095 16.7711 8.28754V6.87923H18.4134C18.6747 6.87923 18.8874 7.09191 18.8874 7.35329V13.3589Z" fill="#fff" stroke="#fff" stroke-width="0.0494185"/>
</g>
<defs>
<clipPath id="clip0_9214_7167">
<rect width="17.7907" height="17.7907" fill="white" transform="translate(1.87294 1.87201)"/>
</clipPath>
</defs>
</svg>