<svg width="14" height="14" viewBox="0 0 14 14" fill="none" xmlns="http://www.w3.org/2000/svg">
<path d="M10.7369 0.837158C11.969 0.839222 13.0406 1.55698 13.4803 2.67509C13.9299 3.81838 13.6333 5.12718 12.7677 5.96875C11.8764 6.83551 10.993 7.71134 10.1319 8.60781C8.9978 9.78866 7.07626 9.84149 5.90166 8.69655C5.67543 8.47615 5.65888 8.17567 5.86072 7.96765C6.05717 7.765 6.35206 7.76871 6.57995 7.97632C7.34757 8.67674 8.42952 8.7304 9.20707 8.10344C9.31502 8.01636 9.41304 7.91606 9.51148 7.81783C10.3941 6.93498 11.2854 6.05997 12.1543 5.1635C12.7247 4.57534 12.8483 3.85759 12.5774 3.09815C12.3111 2.35233 11.7494 1.93174 10.9624 1.8397C10.3262 1.765 9.77204 1.95486 9.31502 2.413C8.81582 2.91324 8.31331 3.41059 7.8141 3.91083C7.65611 4.06891 7.47248 4.12215 7.2632 4.04827C6.91868 3.9261 6.83265 3.49768 7.09942 3.2261C7.4609 2.85793 7.82196 2.48936 8.1946 2.13275C8.49156 1.84837 8.78438 1.55202 9.1165 1.31305C9.59254 0.97006 10.1501 0.837984 10.7369 0.837158Z" fill="white"/>
<path d="M0.839874 10.82C0.854764 9.86741 1.1662 9.14429 1.77872 8.54045C2.66794 7.6642 3.55509 6.78548 4.42363 5.88901C5.5486 4.72797 7.4813 4.69 8.63274 5.82668C8.85277 6.04378 8.87179 6.33683 8.67947 6.54485C8.48385 6.75659 8.18275 6.75617 7.9499 6.54361C7.10742 5.77468 5.95516 5.78706 5.14245 6.58901C4.20608 7.51314 3.26723 8.4352 2.35527 9.38285C1.79734 9.96234 1.68649 10.678 1.95491 11.4251C2.22044 12.1647 2.77754 12.5832 3.55675 12.6794C4.19823 12.7586 4.75781 12.5688 5.21897 12.1061C5.71817 11.6059 6.22068 11.1089 6.71988 10.6083C6.87829 10.4494 7.06234 10.399 7.27079 10.4741C7.59752 10.5918 7.6972 11.0012 7.46145 11.2629C7.30966 11.4313 7.1434 11.5869 6.98293 11.747C6.58464 12.1441 6.20207 12.5581 5.78434 12.9336C4.17507 14.3791 1.3945 13.6865 0.905222 11.3384C0.863449 11.1378 0.853109 10.9302 0.839874 10.8204L0.839874 10.82Z" fill="white"/>
</svg>
