<svg width="707" height="408" viewBox="0 0 707 408" fill="none" xmlns="http://www.w3.org/2000/svg">
<g opacity="0.1">
<path d="M3.86733 275.734C-60.2469 312.634 -131.96 241.089 -94.9946 177.088L-230 410.5L7.15284 547.153V273.848L3.86733 275.734Z" stroke="#2F2F2F" stroke-linecap="square" stroke-linejoin="round"/>
<path d="M481.414 0.5H54.5884C40.1693 0.500366 26.0041 4.28948 13.5169 11.4864C1.02965 18.6834 -9.33994 29.0347 -16.5495 41.4999L-94.9979 177.087C-124.981 228.952 -83.4974 285.818 -32.6085 285.818C-19.77 285.745 -7.18208 282.264 3.86394 275.732L481.414 0.5Z" stroke="#2F2F2F" stroke-linecap="square" stroke-linejoin="round"/>
<path d="M554.605 197.711C517.64 197.711 481.414 225.017 481.414 270.035V820.5L694.991 451.501C702.201 439.035 705.996 424.895 705.996 410.501C705.996 396.107 702.201 381.967 694.991 369.501L616.583 233.914C610.515 222.915 601.592 213.749 590.752 207.379C579.912 201.009 567.554 197.67 554.975 197.711H554.605Z" stroke="#2F2F2F" stroke-linecap="square" stroke-linejoin="round"/>
<path d="M481.419 270.033C481.419 196.234 579.418 169.953 616.424 233.913L481.419 0.5L244.266 137.153L481.419 273.847V270.033Z" stroke="#2F2F2F" stroke-linecap="square" stroke-linejoin="round"/>
</g>
<path d="M481.419 270.033C481.419 196.234 579.418 169.953 616.424 233.913L481.419 0.5L244.266 137.153L481.419 273.847V270.033Z" stroke="url(#paint0_linear_2076_12671)" stroke-opacity="0.75" stroke-linecap="square" stroke-linejoin="round"/>
<defs>
<linearGradient id="paint0_linear_2076_12671" x1="451.5" y1="30.5" x2="327.5" y2="115.5" gradientUnits="userSpaceOnUse">
<stop offset="0.00520833" stop-color="#EE0A1D" stop-opacity="0"/>
<stop offset="0.505208" stop-color="#EE0A1D"/>
<stop offset="1" stop-color="#EE0A1D" stop-opacity="0"/>
</linearGradient>
</defs>
</svg>
