<svg width="15" height="15" viewBox="3 3 15 15" fill="none" xmlns="http://www.w3.org/2000/svg">
<path d="M18.4714 5.80653C17.907 6.03954 17.3056 6.19398 16.6787 6.26897C17.3237 5.90652 17.816 5.33696 18.0474 4.65044C17.446 4.9879 16.7821 5.22626 16.0745 5.35927C15.5034 4.78703 14.6896 4.43262 13.8018 4.43262C12.0792 4.43262 10.6925 5.74851 10.6925 7.36168C10.6925 7.59379 10.7134 7.81697 10.7646 8.02944C8.17795 7.91071 5.88915 6.7439 4.35158 4.96647C4.08315 5.4048 3.92569 5.90652 3.92569 6.44662C3.92569 7.46077 4.48058 8.35975 5.3077 8.88021C4.80783 8.87129 4.31744 8.7347 3.90198 8.51955C3.90198 8.52848 3.90198 8.54008 3.90198 8.55169C3.90198 9.9747 4.98046 11.1567 6.39471 11.429C6.14146 11.4941 5.86544 11.5254 5.57898 11.5254C5.37979 11.5254 5.1787 11.5147 4.98994 11.4754C5.39307 12.635 6.53699 13.4876 7.89718 13.5153C6.83863 14.2946 5.49456 14.7642 4.03952 14.7642C3.78436 14.7642 3.53964 14.7535 3.29492 14.724C4.67313 15.5605 6.3065 16.0381 8.06792 16.0381C13.7932 16.0381 16.9234 11.5745 16.9234 7.70538C16.9234 7.57593 16.9186 7.45095 16.912 7.32686C17.5295 6.91442 18.0483 6.39931 18.4714 5.80653Z" fill="#F9F9F9"/>
</svg>
