<svg width="117" height="32" viewBox="0 0 117 32" fill="none" xmlns="http://www.w3.org/2000/svg">
<path d="M69.7613 19.042H61.9434V20.7362H64.8376V27.9717H66.8847V20.7362H69.7613V19.042Z" fill="black"/>
<path d="M75.0502 18.7598C72.3854 18.7598 70.2324 20.8775 70.2324 23.4894C70.2324 26.1012 72.3854 28.2189 75.0502 28.2189C77.715 28.2189 79.8681 26.1012 79.8681 23.4894C79.8681 20.8775 77.6974 18.7598 75.0502 18.7598ZM77.3974 24.9188C77.0797 25.6953 76.3738 26.2953 75.5091 26.4365C75.3503 26.4542 75.1914 26.4718 75.0326 26.4718C74.8738 26.4718 74.7149 26.4542 74.5561 26.4365C73.6914 26.2953 72.9855 25.6953 72.6678 24.9188C72.4913 24.4776 72.3854 24.0011 72.3854 23.4894C72.3854 22.9776 72.4737 22.5011 72.6678 22.0599C72.9855 21.2834 73.6914 20.6834 74.5561 20.5422C74.7149 20.5245 74.8738 20.5069 75.0326 20.5069C75.1914 20.5069 75.3503 20.5245 75.5091 20.5422C76.3738 20.6834 77.0797 21.2834 77.3974 22.0599C77.5739 22.5011 77.6798 22.9952 77.6798 23.4894C77.6798 23.9835 77.5739 24.4776 77.3974 24.9188Z" fill="black"/>
<path d="M79.9238 19.0254H82.3239L84.5828 22.8549L86.8241 19.0254H89.2418L85.6064 24.6374V27.9551H83.5593V24.6374L79.9238 19.0254Z" fill="black"/>
<path d="M94.0952 18.7598C91.4304 18.7598 89.2773 20.8775 89.2773 23.4894C89.2773 26.1012 91.4304 28.2189 94.0952 28.2189C96.76 28.2189 98.913 26.1012 98.913 23.4894C98.9306 20.8775 96.76 18.7598 94.0952 18.7598ZM96.46 24.9188C96.1423 25.6953 95.4364 26.2953 94.5717 26.4365C94.4128 26.4718 94.254 26.4718 94.0952 26.4718C93.9363 26.4718 93.7775 26.4542 93.6187 26.4365C92.7539 26.2953 92.048 25.6953 91.7304 24.9188C91.5539 24.4776 91.448 24.0011 91.448 23.4894C91.448 22.9776 91.5539 22.5011 91.7304 22.0599C92.048 21.2834 92.7539 20.701 93.6187 20.5422C93.7775 20.5245 93.9363 20.5069 94.0952 20.5069C94.254 20.5069 94.4128 20.5245 94.5717 20.5422C95.4364 20.6834 96.1423 21.2834 96.46 22.0599C96.6364 22.5011 96.7423 22.9952 96.7423 23.4894C96.7423 23.9835 96.6364 24.4776 96.46 24.9188Z" fill="black"/>
<path d="M112.833 19.0249H110.292L106.604 27.937H108.88L109.621 25.9781H113.486L114.227 27.937H116.504L112.833 19.0249ZM110.221 24.4251L111.563 20.8956L112.904 24.4251H110.221Z" fill="black"/>
<path d="M107.171 19.042H99.3535V20.7362H102.248V27.9717H104.295V20.7362H107.171V19.042Z" fill="black"/>
<path d="M48.0174 21.5834C47.1527 21.5834 46.4644 21.9011 46.0762 22.4658L45.9526 22.6423V22.4128V18.6362H44.0996V27.9719H45.9526V27.213V26.9836L46.0762 27.1777C46.4468 27.7601 47.1527 28.0954 47.9998 28.0954C48.8645 28.0954 49.6586 27.7777 50.2234 27.1777C50.7881 26.5777 51.0881 25.7483 51.0881 24.8306C51.0881 23.9129 50.7881 23.0834 50.2234 22.4834C49.6586 21.9011 48.8821 21.5834 48.0174 21.5834ZM47.5409 26.4542C47.0997 26.4542 46.6938 26.2953 46.3938 26.013C46.0762 25.713 45.8997 25.3071 45.8997 24.8306C45.8997 23.8776 46.5879 23.1893 47.5409 23.1893C48.4939 23.1893 49.1469 23.8423 49.1469 24.8306C49.1645 25.8188 48.5292 26.4542 47.5409 26.4542Z" fill="black"/>
<path d="M56.6461 21.7066L55.3402 25.6421L55.2872 25.8185L55.2166 25.6421L53.8225 21.7066H51.793L54.3166 27.7774L54.3342 27.7951L54.3166 27.8127L54.1578 28.201C53.9283 28.7304 53.5224 28.9951 52.9224 28.9951C52.693 28.9951 52.4989 28.9598 52.34 28.9069L52.1283 30.4069C52.4812 30.5481 52.8695 30.6011 53.3107 30.6011C54.599 30.6011 55.3578 30.0363 55.8519 28.7127L58.5697 21.689L56.6461 21.7066Z" fill="black"/>
<path d="M50.898 3.15918L48.2861 11.6654L45.7272 3.15918H42.5859L46.5743 15.0714H49.5391L52.0451 7.07697L54.6217 15.0714H57.5865L61.3631 3.15918H58.4159L55.9629 11.5948L53.2804 3.15918H50.898Z" fill="black"/>
<path d="M76.416 3.15918L81.075 15.0714H83.9692L88.5929 3.15918H85.6634L82.6104 11.7536L79.5573 3.15918H76.416Z" fill="black"/>
<path d="M95.674 2.92969C92.1974 2.92969 89.6738 5.54155 89.6738 9.14168C89.6738 12.7771 92.268 15.3184 95.9917 15.3184C97.8977 15.3184 99.6095 14.8242 100.845 13.9242L100.139 11.7006C99.0977 12.4771 97.7035 12.9183 96.2917 12.9183C94.121 12.9183 92.7798 11.7712 92.5857 9.75935V9.70641H101.392V9.30051C101.392 5.4886 99.0977 2.92969 95.674 2.92969ZM92.6739 7.78281L92.6916 7.72986C93.0622 6.12392 94.2093 5.13565 95.6917 5.13565C97.1565 5.13565 98.2683 6.17687 98.4977 7.74751V7.80045L92.6739 7.78281Z" fill="black"/>
<path d="M111.344 2.89404C109.544 2.89404 108.044 3.70584 107.215 5.10001L107.127 5.24119V3.15876H104.268V15.071H107.127V8.71778C107.127 6.72359 108.291 5.48825 110.162 5.48825C111.874 5.48825 112.686 6.49417 112.686 8.64719V15.071H115.544V7.50009C115.527 4.48234 114.08 2.89404 111.344 2.89404Z" fill="black"/>
<path d="M69.0562 2.91162C65.5619 2.91162 62.7383 5.68231 62.7383 9.10596C62.7383 12.5296 65.5619 15.3003 69.0562 15.3003C72.5504 15.3003 75.374 12.5296 75.374 9.10596C75.374 5.68231 72.5504 2.91162 69.0562 2.91162ZM72.1445 10.9766C71.7386 12.0002 70.8033 12.7767 69.6738 12.9708C69.4797 13.0061 69.2679 13.0238 69.0562 13.0238C68.8444 13.0238 68.6326 13.0061 68.4385 12.9708C67.309 12.7767 66.3737 12.0002 65.9678 10.9766C65.7384 10.3942 65.6149 9.75893 65.6149 9.10596C65.6149 8.453 65.7384 7.81768 65.9678 7.23531C66.3737 6.21174 67.309 5.43524 68.4385 5.24112C68.6326 5.20582 68.8444 5.18817 69.0562 5.18817C69.2679 5.18817 69.4797 5.20582 69.6738 5.24112C70.8033 5.43524 71.7386 6.21174 72.1445 7.23531C72.3739 7.81768 72.4975 8.453 72.4975 9.10596C72.5151 9.75893 72.3916 10.3942 72.1445 10.9766Z" fill="black"/>
<path d="M18.6319 26.6483C20.0084 27.4601 20.3084 28.1837 20.3084 29.2778C20.3084 30.8132 19.0554 31.9426 17.3789 31.9426H27.8087V21.354L18.6319 26.6483Z" fill="#575A60"/>
<path d="M27.8101 0.177246L20.4863 6.54807L27.8101 10.7659C27.8278 9.17757 28.3043 8.54226 29.2396 7.99518C30.5808 7.21868 32.1868 7.74811 33.0162 9.19522L27.8101 0.177246Z" fill="#D30C28"/>
<path d="M27.8086 10.8715C27.8086 11.3833 27.8086 11.7892 27.8086 11.7892V31.9428L36.3677 17.1011C36.7383 16.4482 36.7383 15.654 36.3677 15.0011L33.0147 9.19496C32.1852 7.74785 30.5616 7.21842 29.2381 7.99492C28.2674 8.542 27.8086 9.19496 27.8086 10.8715Z" fill="#6F7278"/>
<path d="M19.8479 27.6538C20.2185 28.1303 20.3244 28.6421 20.3244 29.2774C20.3244 30.8127 19.0714 31.9422 17.3949 31.9422H16.3184H23.5892L19.8479 27.6538Z" fill="#414449"/>
<path d="M5.72846 10.4122C4.93432 9.54748 4.81078 8.2239 5.49904 7.0415L0.292969 16.0595L9.46977 21.3538V14.7183L5.72846 10.4122Z" fill="#A5A5A5"/>
<path d="M6.34814 10.9077C6.10107 10.7665 5.90695 10.6077 5.73047 10.4136L9.47178 14.702V10.7665C8.07761 11.543 7.28347 11.4548 6.34814 10.9077Z" fill="#838688"/>
<path d="M9.5445 10.7129C9.98569 10.4482 10.3386 10.2541 10.3386 10.2541L27.8099 0.177246H10.674C9.93275 0.177246 9.22684 0.583143 8.85624 1.21846L5.50318 7.02455C4.67373 8.47166 5.00904 10.1305 6.35027 10.907C7.30324 11.4718 8.11504 11.5424 9.5445 10.7129Z" fill="#E60A1E"/>
<path d="M18.6289 5.47156L20.4819 6.54807L27.8057 0.177246L18.6289 5.47156Z" fill="#A1192E"/>
<path d="M18.5427 26.5957C18.1015 26.331 17.7486 26.1369 17.7486 26.1369L0.277344 16.0601L8.83648 30.9018C9.20708 31.5547 9.89534 31.943 10.6542 31.943H17.3603C19.0368 31.943 20.2898 30.8135 20.2898 29.2782C20.3075 28.1664 19.9898 27.4252 18.5427 26.5957Z" fill="#C7C7C7"/>
</svg>
