<svg width="112" height="31" viewBox="0 0 112 31" fill="none" xmlns="http://www.w3.org/2000/svg">
<path d="M67.355 18.3853H59.8066V20.021H62.6011V27.0071H64.5776V20.021H67.355V18.3853Z" fill="white"/>
<path d="M72.4622 18.1128C69.8893 18.1128 67.8105 20.1575 67.8105 22.6793C67.8105 25.2011 69.8893 27.2458 72.4622 27.2458C75.0351 27.2458 77.1139 25.2011 77.1139 22.6793C77.1139 20.1575 75.0181 18.1128 72.4622 18.1128ZM74.7284 24.0595C74.4217 24.8092 73.7402 25.3885 72.9053 25.5248C72.7519 25.5419 72.5986 25.5589 72.4452 25.5589C72.2918 25.5589 72.1385 25.5419 71.9851 25.5248C71.1502 25.3885 70.4687 24.8092 70.1619 24.0595C69.9916 23.6335 69.8893 23.1734 69.8893 22.6793C69.8893 22.1852 69.9745 21.7251 70.1619 21.2991C70.4687 20.5494 71.1502 19.9701 71.9851 19.8337C72.1385 19.8167 72.2918 19.7997 72.4452 19.7997C72.5986 19.7997 72.7519 19.8167 72.9053 19.8337C73.7402 19.9701 74.4217 20.5494 74.7284 21.2991C74.8988 21.7251 75.0011 22.2022 75.0011 22.6793C75.0011 23.1564 74.8988 23.6335 74.7284 24.0595Z" fill="white"/>
<path d="M77.1689 18.3696H79.4863L81.6673 22.0671L83.8312 18.3696H86.1656L82.6555 23.7881V26.9914H80.679V23.7881L77.1689 18.3696Z" fill="white"/>
<path d="M90.8509 18.1128C88.278 18.1128 86.1992 20.1575 86.1992 22.6793C86.1992 25.2011 88.278 27.2458 90.8509 27.2458C93.4238 27.2458 95.5026 25.2011 95.5026 22.6793C95.5196 20.1575 93.4238 18.1128 90.8509 18.1128ZM93.1342 24.0595C92.8274 24.8092 92.1459 25.3885 91.311 25.5248C91.1576 25.5589 91.0043 25.5589 90.8509 25.5589C90.6976 25.5589 90.5442 25.5419 90.3908 25.5248C89.5559 25.3885 88.8744 24.8092 88.5677 24.0595C88.3973 23.6335 88.295 23.1734 88.295 22.6793C88.295 22.1852 88.3973 21.7251 88.5677 21.2991C88.8744 20.5494 89.5559 19.9871 90.3908 19.8337C90.5442 19.8167 90.6976 19.7997 90.8509 19.7997C91.0043 19.7997 91.1576 19.8167 91.311 19.8337C92.1459 19.9701 92.8274 20.5494 93.1342 21.2991C93.3045 21.7251 93.4068 22.2022 93.4068 22.6793C93.4068 23.1564 93.3045 23.6335 93.1342 24.0595Z" fill="white"/>
<path d="M108.943 18.3687H106.489L102.928 26.9734H105.126L105.841 25.0821H109.573L110.289 26.9734H112.487L108.943 18.3687ZM106.421 23.5826L107.716 20.1748L109.011 23.5826H106.421Z" fill="white"/>
<path d="M103.476 18.3853H95.9277V20.021H98.7222V27.0071H100.699V20.021H103.476V18.3853Z" fill="white"/>
<path d="M46.3618 20.8387C45.5269 20.8387 44.8624 21.1454 44.4875 21.6907L44.3682 21.8611V21.6395V17.9932H42.5791V27.0069H44.3682V26.2742V26.0527L44.4875 26.2401C44.8453 26.8024 45.5269 27.1262 46.3448 27.1262C47.1797 27.1262 47.9464 26.8194 48.4917 26.2401C49.0369 25.6608 49.3266 24.8599 49.3266 23.9739C49.3266 23.0879 49.0369 22.287 48.4917 21.7077C47.9464 21.1454 47.1967 20.8387 46.3618 20.8387ZM45.9017 25.5415C45.4758 25.5415 45.0839 25.3882 44.7942 25.1155C44.4875 24.8259 44.3171 24.434 44.3171 23.9739C44.3171 23.0538 44.9816 22.3893 45.9017 22.3893C46.8219 22.3893 47.4523 23.0197 47.4523 23.9739C47.4693 24.9281 46.8559 25.5415 45.9017 25.5415Z" fill="white"/>
<path d="M54.6926 20.958L53.4317 24.7577L53.3806 24.9281L53.3124 24.7577L51.9663 20.958H50.0068L52.4434 26.8194L52.4605 26.8365L52.4434 26.8535L52.2901 27.2284C52.0686 27.7395 51.6767 27.9951 51.0973 27.9951C50.8758 27.9951 50.6884 27.9611 50.5351 27.9099L50.3306 29.3583C50.6714 29.4946 51.0462 29.5457 51.4722 29.5457C52.7161 29.5457 53.4487 29.0004 53.9258 27.7225L56.5499 20.9409L54.6926 20.958Z" fill="white"/>
<path d="M49.1426 3.0498L46.6208 11.2627L44.1502 3.0498H41.1172L44.968 14.5512H47.8306L50.2502 6.8325L52.7379 14.5512H55.6005L59.2469 3.0498H56.4013L54.0329 11.1945L51.4429 3.0498H49.1426Z" fill="white"/>
<path d="M73.7812 3.0498L78.2796 14.5512H81.074L85.5383 3.0498H82.7098L79.762 11.3479L76.8142 3.0498H73.7812Z" fill="white"/>
<path d="M92.3744 2.82812C89.0177 2.82812 86.5811 5.34992 86.5811 8.82591C86.5811 12.336 89.0858 14.7896 92.6811 14.7896C94.5213 14.7896 96.1741 14.3125 97.3669 13.4435L96.6853 11.2966C95.68 12.0463 94.3339 12.4723 92.9707 12.4723C90.8749 12.4723 89.5799 11.3647 89.3925 9.42228V9.37116H97.8951V8.97926C97.8951 5.2988 95.68 2.82812 92.3744 2.82812ZM89.4777 7.51389L89.4948 7.46278C89.8526 5.91221 90.9601 4.95802 92.3914 4.95802C93.8057 4.95802 94.8791 5.96333 95.1006 7.47982V7.53093L89.4777 7.51389Z" fill="white"/>
<path d="M107.505 2.79395C105.767 2.79395 104.318 3.57775 103.517 4.92384L103.432 5.06015V3.04953H100.672V14.551H103.432V8.41687C103.432 6.49144 104.557 5.2987 106.363 5.2987C108.016 5.2987 108.8 6.26993 108.8 8.34871V14.551H111.56V7.24116C111.543 4.32747 110.146 2.79395 107.505 2.79395Z" fill="white"/>
<path d="M66.6742 2.81055C63.3005 2.81055 60.5742 5.48569 60.5742 8.79129C60.5742 12.0969 63.3005 14.772 66.6742 14.772C70.048 14.772 72.7743 12.0969 72.7743 8.79129C72.7743 5.48569 70.048 2.81055 66.6742 2.81055ZM69.6561 10.5974C69.2642 11.5857 68.3611 12.3354 67.2706 12.5229C67.0832 12.5569 66.8787 12.574 66.6742 12.574C66.4698 12.574 66.2653 12.5569 66.0779 12.5229C64.9874 12.3354 64.0843 11.5857 63.6924 10.5974C63.4709 10.0351 63.3516 9.42174 63.3516 8.79129C63.3516 8.16084 63.4709 7.54743 63.6924 6.98514C64.0843 5.99687 64.9874 5.24715 66.0779 5.05972C66.2653 5.02564 66.4698 5.0086 66.6742 5.0086C66.8787 5.0086 67.0832 5.02564 67.2706 5.05972C68.3611 5.24715 69.2642 5.99687 69.6561 6.98514C69.8776 7.54743 69.9969 8.16084 69.9969 8.79129C70.0139 9.42174 69.8946 10.0351 69.6561 10.5974Z" fill="white"/>
<path d="M17.991 25.7294C19.3201 26.5132 19.6098 27.2118 19.6098 28.2683C19.6098 29.7507 18.4 30.8412 16.7812 30.8412H26.8514V20.6177L17.991 25.7294Z" fill="#575A60"/>
<path d="M26.8515 0.170898L19.7803 6.32203L26.8515 10.3944C26.8686 8.86087 27.3286 8.24746 28.2317 7.71925C29.5267 6.96952 31.0772 7.4807 31.8781 8.87791L26.8515 0.170898Z" fill="#D30C28"/>
<path d="M26.8506 10.4963C26.8506 10.9904 26.8506 11.3823 26.8506 11.3823V30.8411L35.1146 16.5111C35.4724 15.8807 35.4724 15.1139 35.1146 14.4835L31.8771 8.87759C31.0763 7.48038 29.5087 6.9692 28.2308 7.71893C27.2936 8.24714 26.8506 8.87759 26.8506 10.4963Z" fill="#7D7D83"/>
<path d="M19.1647 26.6997C19.5225 27.1598 19.6247 27.6539 19.6247 28.2673C19.6247 29.7497 18.4149 30.8402 16.7962 30.8402H15.7568H22.777L19.1647 26.6997Z" fill="#414449"/>
<path d="M5.53126 10.0528C4.7645 9.2179 4.64523 7.93996 5.30975 6.79834L0.283203 15.5054L9.14357 20.6171V14.2104L5.53126 10.0528Z" fill="#B7B7B7"/>
<path d="M6.13055 10.5318C5.892 10.3955 5.70457 10.2421 5.53418 10.0547L9.14648 14.1952V10.3955C7.80039 11.1452 7.03363 11.06 6.13055 10.5318Z" fill="#969696"/>
<path d="M9.21578 10.3433C9.64176 10.0877 9.98254 9.90026 9.98254 9.90026L26.8513 0.170898H10.3063C9.59064 0.170898 8.90908 0.562799 8.55125 1.17621L5.31382 6.78209C4.51297 8.1793 4.83672 9.78098 6.1317 10.5307C7.05181 11.076 7.83561 11.1441 9.21578 10.3433Z" fill="#FF0A20"/>
<path d="M17.9873 5.28264L19.7764 6.32203L26.8477 0.170898L17.9873 5.28264Z" fill="#A1192E"/>
<path d="M17.9041 25.6782C17.4781 25.4226 17.1373 25.2352 17.1373 25.2352L0.268555 15.5059L8.53255 29.8358C8.89037 30.4662 9.55489 30.8411 10.2876 30.8411H16.7625C18.3812 30.8411 19.591 29.7506 19.591 28.2682C19.608 27.1947 19.3013 26.4791 17.9041 25.6782Z" fill="white"/>
</svg>
