<svg width="188" height="20" viewBox="0 0 188 20" fill="none" xmlns="http://www.w3.org/2000/svg">
<path d="M137.326 6.56592H128.896V8.39545H132.008V16.2094H134.214V8.39545H137.326V6.56592Z" fill="white"/>
<path d="M143.038 6.2583C140.165 6.2583 137.84 8.54949 137.84 11.3536C137.84 14.1749 140.165 16.449 143.038 16.449C145.91 16.449 148.236 14.1578 148.236 11.3536C148.236 8.54949 145.91 6.2583 143.038 6.2583ZM145.585 12.9096C145.243 13.7474 144.474 14.3801 143.551 14.551C143.38 14.5852 143.209 14.6023 143.038 14.6023C142.867 14.6023 142.696 14.5852 142.525 14.551C141.601 14.3972 140.832 13.7645 140.49 12.9096C140.302 12.4308 140.199 11.9179 140.199 11.3707C140.199 10.8236 140.302 10.3106 140.49 9.83188C140.832 8.99405 141.601 8.36141 142.525 8.19043C142.696 8.15623 142.867 8.13913 143.038 8.13913C143.209 8.13913 143.38 8.15623 143.551 8.19043C144.474 8.34431 145.243 8.97695 145.585 9.83188C145.774 10.3106 145.876 10.8407 145.876 11.3707C145.876 11.9179 145.774 12.4308 145.585 12.9096Z" fill="white"/>
<path d="M148.287 6.54883H150.886L153.314 10.6867L155.759 6.54883H158.358L154.425 12.6188V16.1753H152.22V12.6188L148.287 6.54883Z" fill="white"/>
<path d="M163.607 6.2583C160.735 6.2583 158.409 8.54949 158.409 11.3536C158.409 14.1749 160.735 16.449 163.607 16.449C166.48 16.449 168.805 14.1578 168.805 11.3536C168.805 8.54949 166.48 6.2583 163.607 6.2583ZM166.155 12.9096C165.813 13.7474 165.043 14.3801 164.12 14.551C163.949 14.5852 163.778 14.6023 163.607 14.6023C163.436 14.6023 163.265 14.5852 163.094 14.551C162.154 14.3972 161.384 13.7645 161.059 12.9096C160.871 12.4308 160.769 11.9179 160.769 11.3707C160.769 10.8236 160.871 10.3106 161.059 9.83188C161.401 8.99405 162.171 8.36141 163.094 8.19043C163.265 8.15623 163.436 8.13913 163.607 8.13913C163.778 8.13913 163.949 8.15623 164.12 8.19043C165.043 8.34431 165.813 8.97695 166.155 9.83188C166.343 10.3106 166.445 10.8407 166.445 11.3707C166.445 11.9179 166.343 12.4308 166.155 12.9096Z" fill="white"/>
<path d="M183.817 6.54932H181.064L177.098 16.1757H179.56L180.363 14.0555H184.535L185.339 16.1757H187.801L183.817 6.54932ZM180.996 12.3799L182.449 8.58403L183.903 12.3799H180.996Z" fill="white"/>
<path d="M177.714 6.56592H169.284V8.39545H172.396V16.2094H174.602V8.39545H177.714V6.56592Z" fill="white"/>
<path d="M113.866 9.31898C112.943 9.31898 112.191 9.66095 111.763 10.2594L111.626 10.4475V10.2252V6.13867H109.626V16.2097H111.626V15.3889V15.1496L111.763 15.3547C112.157 15.9874 112.909 16.3464 113.832 16.3464C114.773 16.3464 115.628 15.9874 116.226 15.3547C116.824 14.7221 117.166 13.8159 117.166 12.8242C117.166 11.8325 116.842 10.9262 116.226 10.2936C115.645 9.66095 114.79 9.31898 113.866 9.31898ZM113.353 14.5682C112.875 14.5682 112.447 14.3972 112.122 14.0894C111.78 13.7646 111.592 13.32 111.592 12.8242C111.592 11.7983 112.345 11.063 113.371 11.063C114.414 11.063 115.097 11.7812 115.097 12.8242C115.097 13.8843 114.414 14.5682 113.353 14.5682Z" fill="white"/>
<path d="M123.185 9.43848L121.783 13.6789L121.715 13.8841L121.646 13.6789L120.142 9.43848H117.953L120.672 16.0043L120.689 16.0385L120.672 16.0727L120.501 16.5001C120.261 17.0815 119.817 17.3551 119.167 17.3551C118.911 17.3551 118.705 17.3038 118.534 17.2525L118.312 18.8597C118.688 19.0136 119.099 19.082 119.595 19.082C120.98 19.082 121.8 18.4665 122.33 17.0302L125.254 9.45557C125.237 9.43848 123.185 9.43848 123.185 9.43848Z" fill="white"/>
<path d="M10.391 15.646C11.1604 16.0906 11.3314 16.5009 11.3314 17.0994C11.3314 17.9543 10.6303 18.5869 9.70703 18.5869H15.4863V12.7051L10.391 15.646Z" fill="#575A60"/>
<path d="M15.4693 0.941406L11.417 4.48078L15.4864 6.82327C15.5035 5.93415 15.76 5.59218 16.273 5.28441C17.0082 4.85695 17.9144 5.14762 18.3761 5.95125L15.4693 0.941406Z" fill="#D30C28"/>
<path d="M15.4678 6.87466C15.4678 7.16534 15.4678 7.38762 15.4678 7.38762V18.5871L20.2211 10.3456C20.4263 9.98658 20.4263 9.54202 20.2211 9.18295L18.3574 5.95135C17.8958 5.14772 17.0066 4.85705 16.2543 5.28451C15.7413 5.59228 15.4678 5.95135 15.4678 6.87466Z" fill="#7D7D83"/>
<path d="M11.0562 16.1934C11.2613 16.4669 11.3126 16.7405 11.3126 17.0996C11.3126 17.9545 10.6116 18.5871 9.68829 18.5871H9.08984H13.1251L11.0562 16.1934Z" fill="#414449"/>
<path d="M3.22564 6.63522C2.78108 6.15647 2.71269 5.42123 3.08886 4.75439L0.199219 9.76424L5.29456 12.7052V9.01191L3.22564 6.63522Z" fill="#B7B7B7"/>
<path d="M3.56755 6.90883C3.43077 6.84043 3.32818 6.73784 3.22559 6.63525L5.2945 9.01194V6.82334C4.52507 7.2508 4.08051 7.1995 3.56755 6.90883Z" fill="#838688"/>
<path d="M5.34668 6.80616C5.58606 6.66938 5.79124 6.54969 5.79124 6.54969L15.4861 0.958496H5.96223C5.55186 0.958496 5.1586 1.18078 4.95342 1.53984L3.08969 4.75435C2.62803 5.55798 2.81611 6.48129 3.55135 6.90876C4.0985 7.21653 4.54306 7.26782 5.34668 6.80616Z" fill="#FF0A20"/>
<path d="M10.3896 3.88234L11.4156 4.48078L15.4679 0.941406L10.3896 3.88234Z" fill="#A1192E"/>
<path d="M10.3386 15.6118C10.0992 15.475 9.89404 15.3554 9.89404 15.3554L0.199219 9.76416L4.95259 18.0056C5.15777 18.3647 5.55103 18.587 5.96139 18.587H9.68886C10.6122 18.587 11.3132 17.9543 11.3132 17.0994C11.3132 16.4838 11.1422 16.0735 10.3386 15.6118Z" fill="white"/>
<path d="M34.0709 3.33496L31.2668 12.4997L28.531 3.33496H25.1455L29.4201 16.1759H32.6175L35.3191 7.55828L38.089 16.1759H41.2864L45.3559 3.33496H42.1756L39.5253 12.4142L36.6528 3.33496H34.0709Z" fill="white"/>
<path d="M61.5645 3.33496L66.5743 16.1759H69.7033L74.679 3.33496H71.5157L68.2328 12.6023L64.9499 3.33496H61.5645Z" fill="white"/>
<path d="M82.305 3.0957C78.5605 3.0957 75.8418 5.91695 75.8418 9.79829C75.8418 13.7138 78.6288 16.4496 82.6299 16.4496C84.6817 16.4496 86.5283 15.9195 87.862 14.9449L87.1097 12.5511C85.9812 13.389 84.4765 13.8677 82.9719 13.8677C80.6465 13.8677 79.1931 12.6366 78.9879 10.4651V10.4138H88.4776V9.98638C88.4605 5.84855 85.9812 3.0957 82.305 3.0957ZM79.0734 8.32783L79.0905 8.25943C79.4838 6.53249 80.732 5.45529 82.305 5.45529C83.8781 5.45529 85.0921 6.58379 85.3314 8.25943V8.32783H79.0734Z" fill="white"/>
<path d="M99.1655 3.06152C97.2333 3.06152 95.609 3.93354 94.7199 5.43821L94.6173 5.59209V3.3351H91.5225V16.1589H94.6173V9.31956C94.6173 7.16515 95.8655 5.84857 97.9002 5.84857C99.7468 5.84857 100.619 6.92577 100.619 9.25116V16.176H103.714V8.02007C103.697 4.77137 102.123 3.06152 99.1655 3.06152Z" fill="white"/>
<path d="M53.6489 3.07861C49.8873 3.07861 46.8438 6.07084 46.8438 9.74701C46.8438 13.4232 49.8873 16.4154 53.6489 16.4154C57.4106 16.4154 60.4541 13.4232 60.4541 9.74701C60.437 6.05374 57.3935 3.07861 53.6489 3.07861ZM56.9831 11.7646C56.5386 12.8589 55.5298 13.6967 54.3158 13.9019C54.0935 13.9361 53.8712 13.9532 53.6489 13.9532C53.4266 13.9532 53.2044 13.9361 52.9821 13.9019C51.7681 13.6967 50.7593 12.8589 50.3147 11.7646C50.0583 11.132 49.9215 10.4651 49.9215 9.74701C49.9215 9.02887 50.0583 8.34493 50.3147 7.72939C50.7593 6.63509 51.751 5.79727 52.9821 5.59208C53.2044 5.55789 53.4266 5.54079 53.6489 5.54079C53.8712 5.54079 54.0935 5.55789 54.3158 5.59208C55.5298 5.79727 56.5386 6.63509 56.9831 7.72939C57.2396 8.34493 57.3764 9.02887 57.3764 9.74701C57.3593 10.448 57.2225 11.132 56.9831 11.7646Z" fill="white"/>
</svg>
