<svg width="188" height="20" viewBox="0 0 188 20" fill="none" xmlns="http://www.w3.org/2000/svg">
<path d="M137.326 6.56592H128.896V8.39545H132.008V16.2094H134.214V8.39545H137.326V6.56592Z" fill="black"/>
<path d="M143.036 6.2583C140.163 6.2583 137.838 8.54949 137.838 11.3536C137.838 14.1749 140.163 16.449 143.036 16.449C145.908 16.449 148.234 14.1578 148.234 11.3536C148.234 8.54949 145.908 6.2583 143.036 6.2583ZM145.583 12.9096C145.242 13.7474 144.472 14.3801 143.549 14.551C143.378 14.5852 143.207 14.6023 143.036 14.6023C142.865 14.6023 142.694 14.5852 142.523 14.551C141.6 14.3972 140.83 13.7645 140.488 12.9096C140.3 12.4308 140.197 11.9179 140.197 11.3707C140.197 10.8236 140.3 10.3106 140.488 9.83188C140.83 8.99405 141.6 8.36141 142.523 8.19043C142.694 8.15623 142.865 8.13913 143.036 8.13913C143.207 8.13913 143.378 8.15623 143.549 8.19043C144.472 8.34431 145.242 8.97695 145.583 9.83188C145.772 10.3106 145.874 10.8407 145.874 11.3707C145.874 11.9179 145.772 12.4308 145.583 12.9096Z" fill="black"/>
<path d="M148.285 6.54883H150.884L153.312 10.6867L155.757 6.54883H158.356L154.424 12.6188V16.1753H152.218V12.6188L148.285 6.54883Z" fill="black"/>
<path d="M163.606 6.2583C160.734 6.2583 158.408 8.54949 158.408 11.3536C158.408 14.1749 160.734 16.449 163.606 16.449C166.479 16.449 168.804 14.1578 168.804 11.3536C168.804 8.54949 166.479 6.2583 163.606 6.2583ZM166.154 12.9096C165.812 13.7474 165.042 14.3801 164.119 14.551C163.948 14.5852 163.777 14.6023 163.606 14.6023C163.435 14.6023 163.264 14.5852 163.093 14.551C162.153 14.3972 161.383 13.7645 161.058 12.9096C160.87 12.4308 160.768 11.9179 160.768 11.3707C160.768 10.8236 160.87 10.3106 161.058 9.83188C161.4 8.99405 162.17 8.36141 163.093 8.19043C163.264 8.15623 163.435 8.13913 163.606 8.13913C163.777 8.13913 163.948 8.15623 164.119 8.19043C165.042 8.34431 165.812 8.97695 166.154 9.83188C166.342 10.3106 166.444 10.8407 166.444 11.3707C166.444 11.9179 166.342 12.4308 166.154 12.9096Z" fill="black"/>
<path d="M183.815 6.54932H181.063L177.096 16.1757H179.558L180.362 14.0555H184.534L185.337 16.1757H187.799L183.815 6.54932ZM180.994 12.3799L182.448 8.58403L183.901 12.3799H180.994Z" fill="black"/>
<path d="M177.713 6.56592H169.283V8.39545H172.395V16.2094H174.601V8.39545H177.713V6.56592Z" fill="black"/>
<path d="M113.865 9.31898C112.942 9.31898 112.19 9.66095 111.762 10.2594L111.626 10.4475V10.2252V6.13867H109.625V16.2097H111.626V15.3889V15.1496L111.762 15.3547C112.156 15.9874 112.908 16.3464 113.831 16.3464C114.772 16.3464 115.627 15.9874 116.225 15.3547C116.823 14.7221 117.165 13.8159 117.165 12.8242C117.165 11.8325 116.841 10.9262 116.225 10.2936C115.644 9.66095 114.789 9.31898 113.865 9.31898ZM113.352 14.5682C112.874 14.5682 112.446 14.3972 112.121 14.0894C111.779 13.7646 111.591 13.32 111.591 12.8242C111.591 11.7983 112.344 11.063 113.37 11.063C114.413 11.063 115.097 11.7812 115.097 12.8242C115.097 13.8843 114.413 14.5682 113.352 14.5682Z" fill="black"/>
<path d="M123.185 9.43848L121.783 13.6789L121.715 13.8841L121.646 13.6789L120.142 9.43848H117.953L120.672 16.0043L120.689 16.0385L120.672 16.0727L120.501 16.5001C120.261 17.0815 119.817 17.3551 119.167 17.3551C118.911 17.3551 118.705 17.3038 118.534 17.2525L118.312 18.8597C118.688 19.0136 119.099 19.082 119.595 19.082C120.98 19.082 121.8 18.4665 122.33 17.0302L125.254 9.45557C125.237 9.43848 123.185 9.43848 123.185 9.43848Z" fill="black"/>
<path d="M10.391 15.646C11.1604 16.0906 11.3314 16.5009 11.3314 17.0994C11.3314 17.9543 10.6303 18.5869 9.70703 18.5869H15.4863V12.7051L10.391 15.646Z" fill="#575A60"/>
<path d="M15.4683 0.941406L11.416 4.48078L15.4854 6.82327C15.5025 5.93415 15.759 5.59218 16.272 5.28441C17.0072 4.85695 17.9134 5.14762 18.3751 5.95125L15.4683 0.941406Z" fill="#D30C28"/>
<path d="M15.4688 6.87466C15.4688 7.16534 15.4688 7.38762 15.4688 7.38762V18.5871L20.2221 10.3456C20.4273 9.98658 20.4273 9.54202 20.2221 9.18295L18.3584 5.95135C17.8967 5.14772 17.0076 4.85705 16.2553 5.28451C15.7423 5.59228 15.4688 5.95135 15.4688 6.87466Z" fill="#6F7278"/>
<path d="M11.0562 16.1934C11.2613 16.4669 11.3126 16.7405 11.3126 17.0996C11.3126 17.9545 10.6116 18.5871 9.68829 18.5871H9.08984H13.1251L11.0562 16.1934Z" fill="#414449"/>
<path d="M3.22564 6.63522C2.78108 6.15647 2.71269 5.42123 3.08886 4.75439L0.199219 9.76424L5.29456 12.7052V9.01191L3.22564 6.63522Z" fill="#A5A5A5"/>
<path d="M3.56853 6.90883C3.43174 6.84043 3.32915 6.73784 3.22656 6.63525L5.29548 9.01194V6.82334C4.52604 7.2508 4.08148 7.1995 3.56853 6.90883Z" fill="#838688"/>
<path d="M5.34571 6.80616C5.58508 6.66938 5.79027 6.54969 5.79027 6.54969L15.4851 0.958496H5.96125C5.55089 0.958496 5.15762 1.18078 4.95244 1.53984L3.08871 4.75435C2.62705 5.55798 2.81514 6.48129 3.55037 6.90876C4.09752 7.21653 4.54208 7.26782 5.34571 6.80616Z" fill="#E60A1E"/>
<path d="M10.3906 3.88234L11.4165 4.48078L15.4689 0.941406L10.3906 3.88234Z" fill="#A1192E"/>
<path d="M10.3386 15.6118C10.0992 15.475 9.89404 15.3554 9.89404 15.3554L0.199219 9.76416L4.95259 18.0056C5.15777 18.3647 5.55103 18.587 5.96139 18.587H9.68886C10.6122 18.587 11.3132 17.9543 11.3132 17.0994C11.3132 16.4838 11.1422 16.0735 10.3386 15.6118Z" fill="#C7C7C7"/>
<path d="M34.0719 3.33496L31.2677 12.4997L28.532 3.33496H25.1465L29.4211 16.1759H32.6185L35.3201 7.55828L38.09 16.1759H41.2874L45.3568 3.33496H42.1765L39.5263 12.4142L36.6537 3.33496H34.0719Z" fill="black"/>
<path d="M61.5645 3.33496L66.5743 16.1759H69.7033L74.679 3.33496H71.5157L68.2328 12.6023L64.9499 3.33496H61.5645Z" fill="black"/>
<path d="M82.305 3.0957C78.5605 3.0957 75.8418 5.91695 75.8418 9.79829C75.8418 13.7138 78.6288 16.4496 82.6299 16.4496C84.6817 16.4496 86.5283 15.9195 87.862 14.9449L87.1097 12.5511C85.9812 13.389 84.4765 13.8677 82.9719 13.8677C80.6465 13.8677 79.1931 12.6366 78.9879 10.4651V10.4138H88.4776V9.98638C88.4605 5.84855 85.9812 3.0957 82.305 3.0957ZM79.0734 8.32783L79.0905 8.25943C79.4838 6.53249 80.732 5.45529 82.305 5.45529C83.8781 5.45529 85.0921 6.58379 85.3314 8.25943V8.32783H79.0734Z" fill="black"/>
<path d="M99.1664 3.06152C97.2343 3.06152 95.61 3.93354 94.7208 5.43821L94.6183 5.59209V3.3351H91.5234V16.1589H94.6183V9.31956C94.6183 7.16515 95.8664 5.84857 97.9012 5.84857C99.7478 5.84857 100.62 6.92577 100.62 9.25116V16.176H103.715V8.02007C103.698 4.77137 102.124 3.06152 99.1664 3.06152Z" fill="black"/>
<path d="M53.6489 3.07861C49.8873 3.07861 46.8438 6.07084 46.8438 9.74701C46.8438 13.4232 49.8873 16.4154 53.6489 16.4154C57.4106 16.4154 60.4541 13.4232 60.4541 9.74701C60.437 6.05374 57.3935 3.07861 53.6489 3.07861ZM56.9831 11.7646C56.5386 12.8589 55.5298 13.6967 54.3158 13.9019C54.0935 13.9361 53.8712 13.9532 53.6489 13.9532C53.4266 13.9532 53.2044 13.9361 52.9821 13.9019C51.7681 13.6967 50.7593 12.8589 50.3147 11.7646C50.0583 11.132 49.9215 10.4651 49.9215 9.74701C49.9215 9.02887 50.0583 8.34493 50.3147 7.72939C50.7593 6.63509 51.751 5.79727 52.9821 5.59208C53.2044 5.55789 53.4266 5.54079 53.6489 5.54079C53.8712 5.54079 54.0935 5.55789 54.3158 5.59208C55.5298 5.79727 56.5386 6.63509 56.9831 7.72939C57.2396 8.34493 57.3764 9.02887 57.3764 9.74701C57.3593 10.448 57.2225 11.132 56.9831 11.7646Z" fill="black"/>
</svg>
