<svg width="16" height="11" viewBox="0 0 16 11" fill="none" xmlns="http://www.w3.org/2000/svg">
<path d="M7.79016 0.0047841C9.31072 0.0641502 10.8329 0.071107 12.353 0.139981C12.7113 0.156214 13.0705 0.203521 13.4237 0.268453C14.2789 0.425448 14.826 1.00079 14.9878 1.89731C15.2116 3.13774 15.2566 4.39208 15.2153 5.64688C15.1863 6.52392 15.1015 7.40003 15.0173 8.27429C14.9551 8.92036 14.6956 9.47043 14.1249 9.83636C13.7799 10.0576 13.3907 10.1209 12.9961 10.1624C11.4648 10.3236 9.92711 10.3602 8.38985 10.3523C6.84772 10.3445 5.3056 10.2983 3.76417 10.2482C3.26211 10.232 2.75958 10.1687 2.26216 10.0947C1.42199 9.96994 0.825082 9.39645 0.679218 8.52892C0.567906 7.86685 0.506685 7.19411 0.459146 6.52369C0.382387 5.44003 0.403954 4.35404 0.492075 3.27154C0.533353 2.76554 0.5904 2.25698 0.694523 1.76095C0.881201 0.872549 1.50246 0.338254 2.39944 0.226247C3.84139 0.046062 5.29145 0.0298291 6.74105 0.00547977C7.09052 -0.000317701 7.44022 0.00455215 7.78993 0.00455215C7.78946 0.0203213 7.79039 -0.011217 7.78993 0.00455215L7.79016 0.0047841ZM6.35123 7.39679C7.64383 6.65216 8.91255 5.92145 10.2026 5.17821C8.90513 4.43127 7.63525 3.70009 6.35123 2.9608V7.39679Z" fill="white"/>
</svg>
