<svg xmlns="http://www.w3.org/2000/svg" width="220" height="192" viewBox="0 0 220 192" fill="none">
<path d="M110.853 159.992C119.134 164.899 121.029 169.306 121.029 175.841C121.029 185.166 113.418 191.988 103.285 191.988H166.277V127.996L110.853 159.992Z" fill="#575A60"/>
<path d="M166.27 0L122.033 38.4575L166.27 64.0035C166.377 54.3812 169.24 50.528 174.903 47.2602C182.971 42.598 192.689 45.7807 197.756 54.5515L166.27 0Z" fill="#D30C28"/>
<path d="M166.259 64.5898C166.259 67.7085 166.259 70.0928 166.259 70.0928V191.99L218.021 102.334C220.289 98.417 220.289 93.5845 218.021 89.6568L197.755 54.5523C192.688 45.7815 182.97 42.5989 174.891 47.261C169.111 50.5927 166.248 54.531 166.248 64.6004L166.259 64.5898Z" fill="#6F7278"/>
<path d="M118.183 166.039C120.375 168.934 121.025 172.032 121.025 175.853C121.025 185.177 113.414 192 103.281 192H96.7559H140.748L118.183 166.039Z" fill="#414449"/>
<path d="M32.8586 61.9078C28.0261 56.7028 27.3343 48.6984 31.4536 41.5029L0 96.0012L55.4243 127.998V87.869L32.8586 61.9078Z" fill="#A5A5A5"/>
<path d="M36.6061 64.8876C35.1692 64.0574 33.9131 63.0462 32.8594 61.9072L55.425 87.8684V63.9935C47.0374 68.7195 42.2688 68.1554 36.6061 64.8876Z" fill="#838688"/>
<path d="M55.9346 63.7055C58.6275 62.1514 60.7031 60.9486 60.7031 60.9486L166.272 0H62.7362C58.2124 0 54.0292 2.41623 51.762 6.33329L31.4955 41.4485C26.4289 50.2193 28.5364 60.2355 36.6047 64.887C42.3845 68.2186 47.217 68.7402 55.9346 63.7055Z" fill="#E60A1E"/>
<path d="M110.844 31.9964L122.031 38.4575L166.268 0L110.844 31.9964Z" fill="#A1192E"/>
<path d="M110.338 159.694C107.634 158.14 105.569 156.948 105.569 156.948L0 95.9995L51.7627 185.655C54.0299 189.573 58.2131 191.989 62.7368 191.989H103.281C113.414 191.989 121.024 185.166 121.024 175.842C121.024 169.168 119.055 164.718 110.327 159.694H110.338Z" fill="#C7C7C7"/>
</svg>